<svg xmlns="http://www.w3.org/2000/svg" version="1.1" width="500px" height="500px" style="shape-rendering:geometricPrecision; text-rendering:geometricPrecision; image-rendering:optimizeQuality; fill-rule:evenodd; clip-rule:evenodd" xmlns:xlink="http://www.w3.org/1999/xlink">
<g><path style="opacity:0.752" fill="#051333" d="M 342.5,99.5 C 342.167,99.5 341.833,99.5 341.5,99.5C 341.714,97.8561 341.38,96.3561 340.5,95C 276.999,94.8329 213.665,94.3329 150.5,93.5C 213.363,93.8278 276.196,93.4945 339,92.5C 341.946,93.7861 343.112,96.1194 342.5,99.5 Z"/></g>
<g><path style="opacity:1" fill="#1d0927" d="M 147.5,93.5 C 148.5,93.5 149.5,93.5 150.5,93.5C 213.665,94.3329 276.999,94.8329 340.5,95C 341.38,96.3561 341.714,97.8561 341.5,99.5C 278.167,99.5 214.833,99.5 151.5,99.5C 151.719,98.325 151.386,97.325 150.5,96.5C 146.508,100.33 145.508,99.3304 147.5,93.5 Z"/></g>
<g><path style="opacity:1" fill="#160f23" d="M 147.5,93.5 C 145.508,99.3304 146.508,100.33 150.5,96.5C 151.386,97.325 151.719,98.325 151.5,99.5C 214.833,99.5 278.167,99.5 341.5,99.5C 341.833,99.5 342.167,99.5 342.5,99.5C 343.167,99.5 343.5,99.8333 343.5,100.5C 343.5,102.5 343.5,104.5 343.5,106.5C 345.099,106.232 346.432,106.566 347.5,107.5C 345.833,107.5 344.167,107.5 342.5,107.5C 342.802,104.941 342.468,102.607 341.5,100.5C 276.167,100.5 210.833,100.5 145.5,100.5C 145.5,102.833 145.5,105.167 145.5,107.5C 143.167,107.5 140.833,107.5 138.5,107.5C 138.5,106.833 138.5,106.167 138.5,105.5C 138.5,103.833 138.5,102.167 138.5,100.5C 140.655,100.628 142.655,100.128 144.5,99C 144.88,96.6742 145.88,94.8409 147.5,93.5 Z"/></g>
<g><path style="opacity:1" fill="#fafcfc" d="M 341.5,101.5 C 341.5,103.5 341.5,105.5 341.5,107.5C 336.833,107.5 332.167,107.5 327.5,107.5C 267.167,107.5 206.833,107.5 146.5,107.5C 146.5,105.5 146.5,103.5 146.5,101.5C 211.5,101.5 276.5,101.5 341.5,101.5 Z"/></g>
<g><path style="opacity:1" fill="#b0b6bc" d="M 153.5,108.5 C 211.5,108.5 269.5,108.5 327.5,108.5C 327.5,110.5 327.5,112.5 327.5,114.5C 269.5,114.5 211.5,114.5 153.5,114.5C 153.5,112.5 153.5,110.5 153.5,108.5 Z"/></g>
<g><path style="opacity:1" fill="#665e7d" d="M 348.5,115.5 C 350.833,115.5 353.167,115.5 355.5,115.5C 355.5,166.167 355.5,216.833 355.5,267.5C 353.167,267.5 350.833,267.5 348.5,267.5C 348.5,216.833 348.5,166.167 348.5,115.5 Z"/></g>
<g><path style="opacity:1" fill="#cfd3d5" d="M 341.5,100.5 C 341.5,100.833 341.5,101.167 341.5,101.5C 276.5,101.5 211.5,101.5 146.5,101.5C 146.5,103.5 146.5,105.5 146.5,107.5C 206.833,107.5 267.167,107.5 327.5,107.5C 327.5,107.833 327.5,108.167 327.5,108.5C 269.5,108.5 211.5,108.5 153.5,108.5C 151.167,108.5 148.833,108.5 146.5,108.5C 146.5,161.5 146.5,214.5 146.5,267.5C 146.5,267.833 146.5,268.167 146.5,268.5C 146.424,272.384 147.09,276.05 148.5,279.5C 210.484,280.478 272.484,280.811 334.5,280.5C 334.5,278.833 334.5,277.167 334.5,275.5C 334.5,274.833 334.5,274.167 334.5,273.5C 335.499,220.669 335.832,167.669 335.5,114.5C 336.499,167.664 336.832,220.997 336.5,274.5C 338.167,274.5 339.833,274.5 341.5,274.5C 341.5,276.833 341.5,279.167 341.5,281.5C 339.5,281.5 337.5,281.5 335.5,281.5C 335.167,281.5 334.833,281.5 334.5,281.5C 274.167,281.5 213.833,281.5 153.5,281.5C 150.833,281.5 148.167,281.5 145.5,281.5C 145.5,279.167 145.5,276.833 145.5,274.5C 143.167,274.5 140.833,274.5 138.5,274.5C 138.5,272.167 138.5,269.833 138.5,267.5C 140.833,267.5 143.167,267.5 145.5,267.5C 145.5,214.5 145.5,161.5 145.5,108.5C 143.167,108.5 140.833,108.5 138.5,108.5C 138.5,108.167 138.5,107.833 138.5,107.5C 140.833,107.5 143.167,107.5 145.5,107.5C 145.5,105.167 145.5,102.833 145.5,100.5C 210.833,100.5 276.167,100.5 341.5,100.5 Z"/></g>
<g><path style="opacity:1" fill="#1f1427" d="M 153.5,114.5 C 211.5,114.5 269.5,114.5 327.5,114.5C 330.167,114.5 332.833,114.5 335.5,114.5C 335.832,167.669 335.499,220.669 334.5,273.5C 274.167,273.5 213.833,273.5 153.5,273.5C 153.5,271.5 153.5,269.5 153.5,267.5C 153.5,216.5 153.5,165.5 153.5,114.5 Z"/></g>
<g><path style="opacity:1" fill="#1e0825" d="M 291.5,115.5 C 305.833,115.5 320.167,115.5 334.5,115.5C 334.667,127.171 334.5,138.838 334,150.5C 332.658,149.098 331.824,149.431 331.5,151.5C 332.158,175.169 332.324,198.836 332,222.5C 331.167,223.333 330.333,224.167 329.5,225C 331.35,228.229 332.35,231.729 332.5,235.5C 331.415,247.29 331.415,259.29 332.5,271.5C 328.572,270.836 324.572,271.003 320.5,272C 281.167,272.667 241.833,272.667 202.5,272C 200.821,268.932 198.821,268.766 196.5,271.5C 193.193,270.25 189.693,269.584 186,269.5C 182.833,269.667 179.667,269.833 176.5,270C 174.849,271.63 173.183,271.463 171.5,269.5C 163.609,272.556 162.609,271.056 168.5,265C 167.737,264.056 166.737,263.556 165.5,263.5C 163.394,264.43 161.394,265.596 159.5,267C 160.337,268.011 160.67,269.178 160.5,270.5C 156.866,270.844 155.2,269.177 155.5,265.5C 155.621,232.87 155.621,200.203 155.5,167.5C 155.585,163.523 156.585,159.856 158.5,156.5C 157.43,154.121 156.763,151.621 156.5,149C 156.733,138.163 157.066,127.33 157.5,116.5C 183.873,116.071 210.04,116.738 236,118.5C 238.333,117.833 240.667,117.167 243,116.5C 247.826,117.254 252.493,117.254 257,116.5C 257.945,116.905 258.612,117.572 259,118.5C 267.105,118.599 276.271,118.266 286.5,117.5C 286.491,119.308 286.991,120.975 288,122.5C 289.824,121.251 289.657,120.085 287.5,119C 289.093,118.051 290.426,116.885 291.5,115.5 Z"/></g>
<g><path style="opacity:1" fill="#f2faf5" d="M 253.5,136.5 C 253.5,138.833 253.5,141.167 253.5,143.5C 253.5,148.167 253.5,152.833 253.5,157.5C 248.833,157.5 244.167,157.5 239.5,157.5C 239.819,152.637 239.486,147.97 238.5,143.5C 238.5,141.167 238.5,138.833 238.5,136.5C 243.5,136.5 248.5,136.5 253.5,136.5 Z"/></g>
<g><path style="opacity:1" fill="#23131a" d="M 253.5,136.5 C 248.5,136.5 243.5,136.5 238.5,136.5C 238.5,138.833 238.5,141.167 238.5,143.5C 233.833,143.5 229.167,143.5 224.5,143.5C 222.833,143.5 221.167,143.5 219.5,143.5C 217.167,143.5 214.833,143.5 212.5,143.5C 212.5,148.167 212.5,152.833 212.5,157.5C 212.167,157.5 211.833,157.5 211.5,157.5C 212.198,152.315 211.198,147.648 208.5,143.5C 208.977,142.522 209.643,141.689 210.5,141C 219.263,141.122 227.763,140.289 236,138.5C 236.333,138.833 236.667,139.167 237,139.5C 236.758,137.862 235.925,136.362 234.5,135C 235.263,134.056 236.263,133.556 237.5,133.5C 243.447,134.66 249.447,135.327 255.5,135.5C 255.663,137.857 255.497,140.19 255,142.5C 254.809,140.292 254.309,138.292 253.5,136.5 Z"/></g>
<g><path style="opacity:1" fill="#210e16" d="M 319.5,143.5 C 319.5,145.5 319.5,147.5 319.5,149.5C 318.585,146.03 316.918,143.03 314.5,140.5C 315.37,138.726 316.703,137.393 318.5,136.5C 318.833,136.5 319.167,136.5 319.5,136.5C 320.461,134.735 320.795,132.735 320.5,130.5C 322.735,130.795 324.735,130.461 326.5,129.5C 326.5,127.5 326.5,125.5 326.5,123.5C 324.393,122.532 322.059,122.198 319.5,122.5C 319.5,124.833 319.5,127.167 319.5,129.5C 317.5,129.5 315.5,129.5 313.5,129.5C 313.5,127.167 313.5,124.833 313.5,122.5C 310.941,122.198 308.607,122.532 306.5,123.5C 306.167,123.5 305.833,123.5 305.5,123.5C 304.549,124.919 304.216,126.585 304.5,128.5C 303.167,128.5 301.833,128.5 300.5,128.5C 300.675,126.379 300.341,124.379 299.5,122.5C 305.311,120.858 311.311,119.858 317.5,119.5C 326.374,118.205 329.874,121.872 328,130.5C 326.333,131.167 324.667,131.833 323,132.5C 322.624,135.01 321.79,137.343 320.5,139.5C 318.67,137.973 317.67,138.473 317.5,141C 317.684,142.376 318.351,143.209 319.5,143.5 Z"/></g>
<g><path style="opacity:1" fill="#f2ed29" d="M 306.5,123.5 C 308.5,123.5 310.5,123.5 312.5,123.5C 312.205,125.735 312.539,127.735 313.5,129.5C 315.265,130.461 317.265,130.795 319.5,130.5C 319.5,132.5 319.5,134.5 319.5,136.5C 319.167,136.5 318.833,136.5 318.5,136.5C 316.5,136.5 314.5,136.5 312.5,136.5C 312.5,138.833 312.5,141.167 312.5,143.5C 310.5,143.5 308.5,143.5 306.5,143.5C 307.01,140.612 306.344,138.279 304.5,136.5C 303.432,135.566 302.099,135.232 300.5,135.5C 300.5,133.833 300.5,132.167 300.5,130.5C 302.5,130.5 304.5,130.5 306.5,130.5C 306.5,128.167 306.5,125.833 306.5,123.5 Z"/></g>
<g><path style="opacity:1" fill="#a79a35" d="M 305.5,123.5 C 305.833,123.5 306.167,123.5 306.5,123.5C 306.5,125.833 306.5,128.167 306.5,130.5C 304.5,130.5 302.5,130.5 300.5,130.5C 300.5,132.167 300.5,133.833 300.5,135.5C 302.099,135.232 303.432,135.566 304.5,136.5C 302.833,136.5 301.167,136.5 299.5,136.5C 299.5,134.167 299.5,131.833 299.5,129.5C 301.5,129.5 303.5,129.5 305.5,129.5C 305.5,127.5 305.5,125.5 305.5,123.5 Z"/></g>
<g><path style="opacity:1" fill="#2a1806" d="M 299.5,122.5 C 300.341,124.379 300.675,126.379 300.5,128.5C 301.833,128.5 303.167,128.5 304.5,128.5C 304.216,126.585 304.549,124.919 305.5,123.5C 305.5,125.5 305.5,127.5 305.5,129.5C 303.5,129.5 301.5,129.5 299.5,129.5C 299.5,131.833 299.5,134.167 299.5,136.5C 301.167,136.5 302.833,136.5 304.5,136.5C 306.344,138.279 307.01,140.612 306.5,143.5C 308.5,143.5 310.5,143.5 312.5,143.5C 312.5,141.167 312.5,138.833 312.5,136.5C 314.5,136.5 316.5,136.5 318.5,136.5C 316.703,137.393 315.37,138.726 314.5,140.5C 314.461,141.583 314.127,142.583 313.5,143.5C 310.894,144.652 308.227,144.818 305.5,144C 304.594,142.301 304.261,140.467 304.5,138.5C 299.094,139.265 297.094,136.931 298.5,131.5C 290.776,132.638 288.442,129.638 291.5,122.5C 294.167,121.167 296.833,121.167 299.5,122.5 Z"/></g>
<g><path style="opacity:1" fill="#e6de40" d="M 291.5,122.5 C 293.833,122.5 296.167,122.5 298.5,122.5C 298.5,124.833 298.5,127.167 298.5,129.5C 296.167,129.5 293.833,129.5 291.5,129.5C 291.5,127.167 291.5,124.833 291.5,122.5 Z"/></g>
<g><path style="opacity:1" fill="#e7e831" d="M 326.5,123.5 C 326.5,125.5 326.5,127.5 326.5,129.5C 324.5,129.5 322.5,129.5 320.5,129.5C 320.5,127.5 320.5,125.5 320.5,123.5C 322.5,123.5 324.5,123.5 326.5,123.5 Z"/></g>
<g><path style="opacity:1" fill="#72651c" d="M 326.5,123.5 C 324.5,123.5 322.5,123.5 320.5,123.5C 320.5,125.5 320.5,127.5 320.5,129.5C 322.5,129.5 324.5,129.5 326.5,129.5C 324.735,130.461 322.735,130.795 320.5,130.5C 320.795,132.735 320.461,134.735 319.5,136.5C 319.5,134.5 319.5,132.5 319.5,130.5C 317.265,130.795 315.265,130.461 313.5,129.5C 315.5,129.5 317.5,129.5 319.5,129.5C 319.5,127.167 319.5,124.833 319.5,122.5C 322.059,122.198 324.393,122.532 326.5,123.5 Z"/></g>
<g><path style="opacity:1" fill="#7c6a1b" d="M 306.5,123.5 C 308.607,122.532 310.941,122.198 313.5,122.5C 313.5,124.833 313.5,127.167 313.5,129.5C 312.539,127.735 312.205,125.735 312.5,123.5C 310.5,123.5 308.5,123.5 306.5,123.5 Z"/></g>
<g><path style="opacity:1" fill="#ded93b" d="M 319.5,143.5 C 321.833,143.5 324.167,143.5 326.5,143.5C 326.5,145.833 326.5,148.167 326.5,150.5C 324.167,150.5 321.833,150.5 319.5,150.5C 319.5,150.167 319.5,149.833 319.5,149.5C 319.5,147.5 319.5,145.5 319.5,143.5 Z"/></g>
<g><path style="opacity:1" fill="#2ad8f8" d="M 253.5,143.5 C 261.167,143.5 268.833,143.5 276.5,143.5C 276.5,146.833 276.5,150.167 276.5,153.5C 274.654,153.778 273.32,153.111 272.5,151.5C 266.537,150.504 260.537,150.171 254.5,150.5C 254.802,153.059 254.468,155.393 253.5,157.5C 253.5,152.833 253.5,148.167 253.5,143.5 Z"/></g>
<g><path style="opacity:1" fill="#e7e349" d="M 219.5,143.5 C 219.5,145.5 219.5,147.5 219.5,149.5C 221.167,149.5 222.833,149.5 224.5,149.5C 224.5,147.5 224.5,145.5 224.5,143.5C 229.167,143.5 233.833,143.5 238.5,143.5C 239.486,147.97 239.819,152.637 239.5,157.5C 239.167,157.5 238.833,157.5 238.5,157.5C 238.167,157.5 237.833,157.5 237.5,157.5C 237.5,155.167 237.5,152.833 237.5,150.5C 237.5,148.5 237.5,146.5 237.5,144.5C 233.833,144.5 230.167,144.5 226.5,144.5C 226.675,146.621 226.341,148.621 225.5,150.5C 221.5,150.833 217.5,151.167 213.5,151.5C 213.5,153.5 213.5,155.5 213.5,157.5C 213.167,157.5 212.833,157.5 212.5,157.5C 212.5,152.833 212.5,148.167 212.5,143.5C 214.833,143.5 217.167,143.5 219.5,143.5 Z"/></g>
<g><path style="opacity:1" fill="#f7fdd2" d="M 219.5,143.5 C 221.167,143.5 222.833,143.5 224.5,143.5C 224.5,145.5 224.5,147.5 224.5,149.5C 222.833,149.5 221.167,149.5 219.5,149.5C 219.5,147.5 219.5,145.5 219.5,143.5 Z"/></g>
<g><path style="opacity:1" fill="#f6fa1d" d="M 237.5,150.5 C 233.5,150.5 229.5,150.5 225.5,150.5C 226.341,148.621 226.675,146.621 226.5,144.5C 230.167,144.5 233.833,144.5 237.5,144.5C 237.5,146.5 237.5,148.5 237.5,150.5 Z"/></g>
<g><path style="opacity:1" fill="#261507" d="M 319.5,150.5 C 321.833,150.5 324.167,150.5 326.5,150.5C 326.5,148.167 326.5,145.833 326.5,143.5C 324.167,143.5 321.833,143.5 319.5,143.5C 320.334,142.252 321.667,141.585 323.5,141.5C 327.25,140.751 328.916,142.251 328.5,146C 328.811,150.02 326.978,152.187 323,152.5C 321.301,152.613 320.134,151.947 319.5,150.5 Z"/></g>
<g><path style="opacity:1" fill="#f8d60e" d="M 225.5,150.5 C 229.5,150.5 233.5,150.5 237.5,150.5C 237.5,152.833 237.5,155.167 237.5,157.5C 231.5,157.5 225.5,157.5 219.5,157.5C 217.5,157.5 215.5,157.5 213.5,157.5C 213.5,155.5 213.5,153.5 213.5,151.5C 217.5,151.167 221.5,150.833 225.5,150.5 Z"/></g>
<g><path style="opacity:1" fill="#231307" d="M 298.5,150.5 C 298.389,151.117 298.056,151.617 297.5,152C 290.445,152.931 288.112,149.931 290.5,143C 293.482,142.502 296.482,142.335 299.5,142.5C 299.62,144.199 299.954,145.865 300.5,147.5C 300.547,149.038 299.88,150.038 298.5,150.5 Z"/></g>
<g><path style="opacity:1" fill="#e7df43" d="M 298.5,150.5 C 296.167,150.5 293.833,150.5 291.5,150.5C 291.5,148.167 291.5,145.833 291.5,143.5C 293.833,143.5 296.167,143.5 298.5,143.5C 298.5,145.833 298.5,148.167 298.5,150.5 Z"/></g>
<g><path style="opacity:0.99" fill="#122543" d="M 343.5,100.5 C 345.5,100.5 347.5,100.5 349.5,100.5C 349.338,102.527 349.505,104.527 350,106.5C 352,107.167 354,107.833 356,108.5C 356.495,110.473 356.662,112.473 356.5,114.5C 359.394,114.042 361.894,114.709 364,116.5C 364.5,166.832 364.667,217.166 364.5,267.5C 362.505,217.178 361.838,166.511 362.5,115.5C 360.5,115.5 358.5,115.5 356.5,115.5C 356.167,115.5 355.833,115.5 355.5,115.5C 353.167,115.5 350.833,115.5 348.5,115.5C 348.806,112.615 348.473,109.948 347.5,107.5C 346.432,106.566 345.099,106.232 343.5,106.5C 343.5,104.5 343.5,102.5 343.5,100.5 Z"/></g>
<g><path style="opacity:1" fill="#f7ae15" d="M 219.5,157.5 C 225.5,157.5 231.5,157.5 237.5,157.5C 237.833,157.5 238.167,157.5 238.5,157.5C 238.5,159.833 238.5,162.167 238.5,164.5C 234.5,164.5 230.5,164.5 226.5,164.5C 224.167,164.5 221.833,164.5 219.5,164.5C 219.5,162.167 219.5,159.833 219.5,157.5 Z"/></g>
<g><path style="opacity:1" fill="#ee5b9c" d="M 282.5,157.5 C 285.167,157.5 287.833,157.5 290.5,157.5C 290.5,160.167 290.5,162.833 290.5,165.5C 284.5,165.5 278.5,165.5 272.5,165.5C 273.01,168.388 272.344,170.721 270.5,172.5C 270.5,170.167 270.5,167.833 270.5,165.5C 270.5,163.167 270.5,160.833 270.5,158.5C 272.833,158.5 275.167,158.5 277.5,158.5C 277.5,160.5 277.5,162.5 277.5,164.5C 279.5,164.5 281.5,164.5 283.5,164.5C 283.702,162.05 283.369,159.717 282.5,157.5 Z"/></g>
<g><path style="opacity:1" fill="#f7dfe8" d="M 205.5,157.5 C 207.5,157.5 209.5,157.5 211.5,157.5C 211.5,160.167 211.5,162.833 211.5,165.5C 209.5,165.5 207.5,165.5 205.5,165.5C 205.5,165.167 205.5,164.833 205.5,164.5C 205.5,162.167 205.5,159.833 205.5,157.5 Z"/></g>
<g><path style="opacity:1" fill="#e75e88" d="M 205.5,157.5 C 205.5,159.833 205.5,162.167 205.5,164.5C 203.167,164.5 200.833,164.5 198.5,164.5C 198.5,162.167 198.5,159.833 198.5,157.5C 200.833,157.5 203.167,157.5 205.5,157.5 Z"/></g>
<g><path style="opacity:1" fill="#2e7db6" d="M 238.5,157.5 C 238.833,157.5 239.167,157.5 239.5,157.5C 244.167,157.5 248.833,157.5 253.5,157.5C 253.5,159.833 253.5,162.167 253.5,164.5C 248.833,164.5 244.167,164.5 239.5,164.5C 239.167,164.5 238.833,164.5 238.5,164.5C 238.5,162.167 238.5,159.833 238.5,157.5 Z"/></g>
<g><path style="opacity:1" fill="#fa9bb9" d="M 277.5,157.5 C 279.167,157.5 280.833,157.5 282.5,157.5C 283.369,159.717 283.702,162.05 283.5,164.5C 281.5,164.5 279.5,164.5 277.5,164.5C 277.5,162.5 277.5,160.5 277.5,158.5C 277.5,158.167 277.5,157.833 277.5,157.5 Z"/></g>
<g><path style="opacity:1" fill="#05376a" d="M 239.5,164.5 C 244.167,164.5 248.833,164.5 253.5,164.5C 256.5,164.5 259.5,164.5 262.5,164.5C 262.5,167.167 262.5,169.833 262.5,172.5C 261.633,170.098 260.3,167.932 258.5,166C 251.987,165.828 245.653,165.328 239.5,164.5 Z"/></g>
<g><path style="opacity:1" fill="#f50b27" d="M 211.5,157.5 C 211.833,157.5 212.167,157.5 212.5,157.5C 212.833,157.5 213.167,157.5 213.5,157.5C 215.5,157.5 217.5,157.5 219.5,157.5C 219.5,159.833 219.5,162.167 219.5,164.5C 221.833,164.5 224.167,164.5 226.5,164.5C 228.238,170.927 225.905,173.594 219.5,172.5C 219.5,174.833 219.5,177.167 219.5,179.5C 217.167,179.5 214.833,179.5 212.5,179.5C 208.167,179.5 203.833,179.5 199.5,179.5C 200.441,174.93 200.774,170.263 200.5,165.5C 202.167,165.5 203.833,165.5 205.5,165.5C 207.5,165.5 209.5,165.5 211.5,165.5C 211.5,162.833 211.5,160.167 211.5,157.5 Z"/></g>
<g><path style="opacity:1" fill="#20adf3" d="M 276.5,143.5 C 277.486,147.97 277.819,152.637 277.5,157.5C 277.5,157.833 277.5,158.167 277.5,158.5C 275.167,158.5 272.833,158.5 270.5,158.5C 270.5,160.833 270.5,163.167 270.5,165.5C 269.532,167.607 269.198,169.941 269.5,172.5C 267.167,172.5 264.833,172.5 262.5,172.5C 262.5,169.833 262.5,167.167 262.5,164.5C 259.5,164.5 256.5,164.5 253.5,164.5C 253.5,162.167 253.5,159.833 253.5,157.5C 254.468,155.393 254.802,153.059 254.5,150.5C 260.537,150.171 266.537,150.504 272.5,151.5C 273.32,153.111 274.654,153.778 276.5,153.5C 276.5,150.167 276.5,146.833 276.5,143.5 Z"/></g>
<g><path style="opacity:1" fill="#1d1023" d="M 269.5,194.5 C 269.5,194.833 269.5,195.167 269.5,195.5C 267.167,195.5 264.833,195.5 262.5,195.5C 262.5,197.5 262.5,199.5 262.5,201.5C 260.052,202.473 257.385,202.806 254.5,202.5C 254.5,203.5 254.5,204.5 254.5,205.5C 253.596,206.209 253.263,207.209 253.5,208.5C 247.824,208.666 242.157,208.499 236.5,208C 235.891,206.052 235.224,204.218 234.5,202.5C 234.167,201.833 233.833,201.167 233.5,200.5C 236.091,201.254 237.924,202.921 239,205.5C 240.694,203.344 242.527,203.511 244.5,206C 246.902,206.814 249.235,206.647 251.5,205.5C 250.359,204.575 250.359,203.741 251.5,203C 253.226,201.47 255.226,200.47 257.5,200C 255.343,198.915 255.176,197.749 257,196.5C 257.667,194.5 257.667,192.5 257,190.5C 255.271,190.026 254.105,189.026 253.5,187.5C 255.5,187.5 257.5,187.5 259.5,187.5C 259.5,184.833 259.5,182.167 259.5,179.5C 257.167,179.5 254.833,179.5 252.5,179.5C 252.5,181.833 252.5,184.167 252.5,186.5C 251.043,184.758 249.876,182.758 249,180.5C 247.866,181.425 246.699,182.425 245.5,183.5C 246.767,185.944 248.267,188.277 250,190.5C 251.011,191.337 252.178,191.67 253.5,191.5C 253.167,193.5 252.833,195.5 252.5,197.5C 251.5,197.5 250.5,197.5 249.5,197.5C 249.799,195.396 249.466,193.396 248.5,191.5C 247.818,192.243 247.151,192.909 246.5,193.5C 246.5,191.5 246.5,189.5 246.5,187.5C 244.167,187.5 241.833,187.5 239.5,187.5C 239.167,187.5 238.833,187.5 238.5,187.5C 238.5,185.167 238.5,182.833 238.5,180.5C 236.5,180.5 234.5,180.5 232.5,180.5C 232.5,182.833 232.5,185.167 232.5,187.5C 232.44,188.043 232.107,188.376 231.5,188.5C 230.786,185.973 230.12,183.473 229.5,181C 231.677,179.814 232.677,177.981 232.5,175.5C 233.5,175.5 234.5,175.5 235.5,175.5C 235.178,173.278 235.845,171.444 237.5,170C 244.505,168.551 251.505,168.885 258.5,171C 256.137,171.589 255.137,173.089 255.5,175.5C 253.712,175.215 252.045,175.548 250.5,176.5C 260.581,175.863 263.581,180.029 259.5,189C 260.126,189.75 260.626,190.584 261,191.5C 261.333,191.167 261.667,190.833 262,190.5C 264.395,192.014 266.895,193.348 269.5,194.5 Z"/></g>
<g><path style="opacity:1" fill="#c7183c" d="M 198.5,164.5 C 200.833,164.5 203.167,164.5 205.5,164.5C 205.5,164.833 205.5,165.167 205.5,165.5C 203.833,165.5 202.167,165.5 200.5,165.5C 200.774,170.263 200.441,174.93 199.5,179.5C 199.167,179.5 198.833,179.5 198.5,179.5C 198.5,174.833 198.5,170.167 198.5,165.5C 198.5,165.167 198.5,164.833 198.5,164.5 Z"/></g>
<g><path style="opacity:1" fill="#f00d6d" d="M 290.5,165.5 C 290.5,170.167 290.5,174.833 290.5,179.5C 285.833,179.5 281.167,179.5 276.5,179.5C 276.5,181.833 276.5,184.167 276.5,186.5C 274.621,187.341 272.621,187.675 270.5,187.5C 270.5,182.5 270.5,177.5 270.5,172.5C 272.344,170.721 273.01,168.388 272.5,165.5C 278.5,165.5 284.5,165.5 290.5,165.5 Z"/></g>
<g><path style="opacity:1" fill="#2f1217" d="M 198.5,165.5 C 198.5,170.167 198.5,174.833 198.5,179.5C 198.167,179.5 197.833,179.5 197.5,179.5C 196.5,179.5 195.5,179.5 194.5,179.5C 192.5,179.5 190.5,179.5 188.5,179.5C 188.5,181.833 188.5,184.167 188.5,186.5C 188.5,189.167 188.5,191.833 188.5,194.5C 187.883,194.389 187.383,194.056 187,193.5C 186.667,188.833 186.333,184.167 186,179.5C 184.422,178.289 184.255,176.955 185.5,175.5C 188.91,177.24 192.577,178.24 196.5,178.5C 196.28,173.9 196.946,169.567 198.5,165.5 Z"/></g>
<g><path style="opacity:1" fill="#a7b7bf" d="M 341.5,100.5 C 342.468,102.607 342.802,104.941 342.5,107.5C 344.167,107.5 345.833,107.5 347.5,107.5C 348.473,109.948 348.806,112.615 348.5,115.5C 348.5,166.167 348.5,216.833 348.5,267.5C 348.5,269.833 348.5,272.167 348.5,274.5C 346.167,274.5 343.833,274.5 341.5,274.5C 341.5,218.833 341.5,163.167 341.5,107.5C 341.5,105.5 341.5,103.5 341.5,101.5C 341.5,101.167 341.5,100.833 341.5,100.5 Z"/></g>
<g><path style="opacity:1" fill="#f977ad" d="M 290.5,179.5 C 293.167,179.5 295.833,179.5 298.5,179.5C 298.5,181.833 298.5,184.167 298.5,186.5C 291.167,186.5 283.833,186.5 276.5,186.5C 276.5,184.167 276.5,181.833 276.5,179.5C 281.167,179.5 285.833,179.5 290.5,179.5 Z"/></g>
<g><path style="opacity:1" fill="#faf789" d="M 194.5,179.5 C 194.5,181.5 194.5,183.5 194.5,185.5C 195.5,185.5 196.5,185.5 197.5,185.5C 197.5,183.5 197.5,181.5 197.5,179.5C 197.833,179.5 198.167,179.5 198.5,179.5C 198.833,179.5 199.167,179.5 199.5,179.5C 199.5,181.833 199.5,184.167 199.5,186.5C 194.069,187.906 191.735,185.906 192.5,180.5C 191.5,180.5 190.5,180.5 189.5,180.5C 189.5,182.5 189.5,184.5 189.5,186.5C 189.167,186.5 188.833,186.5 188.5,186.5C 188.5,184.167 188.5,181.833 188.5,179.5C 190.5,179.5 192.5,179.5 194.5,179.5 Z"/></g>
<g><path style="opacity:1" fill="#f6fcd4" d="M 194.5,179.5 C 195.5,179.5 196.5,179.5 197.5,179.5C 197.5,181.5 197.5,183.5 197.5,185.5C 196.5,185.5 195.5,185.5 194.5,185.5C 194.5,183.5 194.5,181.5 194.5,179.5 Z"/></g>
<g><path style="opacity:1" fill="#400f0c" d="M 226.5,164.5 C 230.5,164.5 234.5,164.5 238.5,164.5C 235.038,165.482 231.371,165.815 227.5,165.5C 229.159,171.826 226.826,174.826 220.5,174.5C 220.209,180.923 220.542,187.256 221.5,193.5C 221.158,194.338 220.492,194.672 219.5,194.5C 219.5,189.5 219.5,184.5 219.5,179.5C 219.5,177.167 219.5,174.833 219.5,172.5C 225.905,173.594 228.238,170.927 226.5,164.5 Z"/></g>
<g><path style="opacity:1" fill="#1f0a26" d="M 238.5,164.5 C 238.833,164.5 239.167,164.5 239.5,164.5C 245.653,165.328 251.987,165.828 258.5,166C 260.3,167.932 261.633,170.098 262.5,172.5C 264.833,172.5 267.167,172.5 269.5,172.5C 269.5,179.833 269.5,187.167 269.5,194.5C 266.895,193.348 264.395,192.014 262,190.5C 261.667,190.833 261.333,191.167 261,191.5C 260.626,190.584 260.126,189.75 259.5,189C 263.581,180.029 260.581,175.863 250.5,176.5C 252.045,175.548 253.712,175.215 255.5,175.5C 255.137,173.089 256.137,171.589 258.5,171C 251.505,168.885 244.505,168.551 237.5,170C 235.845,171.444 235.178,173.278 235.5,175.5C 234.5,175.5 233.5,175.5 232.5,175.5C 232.677,177.981 231.677,179.814 229.5,181C 230.12,183.473 230.786,185.973 231.5,188.5C 232.107,188.376 232.44,188.043 232.5,187.5C 234.5,187.5 236.5,187.5 238.5,187.5C 238.833,187.5 239.167,187.5 239.5,187.5C 239.5,190.167 239.5,192.833 239.5,195.5C 242.388,196.01 244.721,195.344 246.5,193.5C 247.151,192.909 247.818,192.243 248.5,191.5C 249.466,193.396 249.799,195.396 249.5,197.5C 250.5,197.5 251.5,197.5 252.5,197.5C 252.833,195.5 253.167,193.5 253.5,191.5C 252.178,191.67 251.011,191.337 250,190.5C 248.267,188.277 246.767,185.944 245.5,183.5C 246.699,182.425 247.866,181.425 249,180.5C 249.876,182.758 251.043,184.758 252.5,186.5C 252.5,187.167 252.833,187.5 253.5,187.5C 254.105,189.026 255.271,190.026 257,190.5C 257.667,192.5 257.667,194.5 257,196.5C 255.176,197.749 255.343,198.915 257.5,200C 255.226,200.47 253.226,201.47 251.5,203C 250.359,203.741 250.359,204.575 251.5,205.5C 249.235,206.647 246.902,206.814 244.5,206C 242.527,203.511 240.694,203.344 239,205.5C 237.924,202.921 236.091,201.254 233.5,200.5C 231.5,200.5 229.5,200.5 227.5,200.5C 227.5,198.167 227.5,195.833 227.5,193.5C 225.5,193.5 223.5,193.5 221.5,193.5C 220.542,187.256 220.209,180.923 220.5,174.5C 226.826,174.826 229.159,171.826 227.5,165.5C 231.371,165.815 235.038,165.482 238.5,164.5 Z"/></g>
<g><path style="opacity:1" fill="#e6e9ef" d="M 239.5,172.5 C 241.833,172.5 244.167,172.5 246.5,172.5C 246.5,174.833 246.5,177.167 246.5,179.5C 244.167,179.5 241.833,179.5 239.5,179.5C 239.5,177.167 239.5,174.833 239.5,172.5 Z"/></g>
<g><path style="opacity:1" fill="#f2f6f8" d="M 238.5,187.5 C 236.5,187.5 234.5,187.5 232.5,187.5C 232.5,185.167 232.5,182.833 232.5,180.5C 234.5,180.5 236.5,180.5 238.5,180.5C 238.5,182.833 238.5,185.167 238.5,187.5 Z"/></g>
<g><path style="opacity:1" fill="#d6dbe0" d="M 253.5,187.5 C 252.833,187.5 252.5,187.167 252.5,186.5C 252.5,184.167 252.5,181.833 252.5,179.5C 254.833,179.5 257.167,179.5 259.5,179.5C 259.5,182.167 259.5,184.833 259.5,187.5C 257.5,187.5 255.5,187.5 253.5,187.5 Z"/></g>
<g><path style="opacity:1" fill="#f6e01d" d="M 199.5,179.5 C 203.833,179.5 208.167,179.5 212.5,179.5C 212.5,182.167 212.5,184.833 212.5,187.5C 206.305,187.324 200.138,187.657 194,188.5C 191.992,188.693 190.492,188.026 189.5,186.5C 189.5,184.5 189.5,182.5 189.5,180.5C 190.5,180.5 191.5,180.5 192.5,180.5C 191.735,185.906 194.069,187.906 199.5,186.5C 199.5,184.167 199.5,181.833 199.5,179.5 Z"/></g>
<g><path style="opacity:1" fill="#edac17" d="M 212.5,179.5 C 214.833,179.5 217.167,179.5 219.5,179.5C 219.5,184.5 219.5,189.5 219.5,194.5C 219.5,194.833 219.5,195.167 219.5,195.5C 216.833,195.5 214.167,195.5 211.5,195.5C 209.5,195.5 207.5,195.5 205.5,195.5C 203.735,194.539 201.735,194.205 199.5,194.5C 199.5,199.167 199.5,203.833 199.5,208.5C 199.5,210.833 199.5,213.167 199.5,215.5C 198.509,208.687 198.175,201.687 198.5,194.5C 195.167,194.5 191.833,194.5 188.5,194.5C 188.5,191.833 188.5,189.167 188.5,186.5C 188.833,186.5 189.167,186.5 189.5,186.5C 190.492,188.026 191.992,188.693 194,188.5C 200.138,187.657 206.305,187.324 212.5,187.5C 212.5,184.833 212.5,182.167 212.5,179.5 Z"/></g>
<g><path style="opacity:1" fill="#f8fbfa" d="M 138.5,108.5 C 140.833,108.5 143.167,108.5 145.5,108.5C 145.5,161.5 145.5,214.5 145.5,267.5C 143.167,267.5 140.833,267.5 138.5,267.5C 138.5,214.5 138.5,161.5 138.5,108.5 Z"/></g>
<g><path style="opacity:1" fill="#9fadb4" d="M 153.5,108.5 C 153.5,110.5 153.5,112.5 153.5,114.5C 153.5,165.5 153.5,216.5 153.5,267.5C 151.167,267.5 148.833,267.5 146.5,267.5C 146.5,214.5 146.5,161.5 146.5,108.5C 148.833,108.5 151.167,108.5 153.5,108.5 Z"/></g>
<g><path style="opacity:1" fill="#dfe6eb" d="M 239.5,187.5 C 241.833,187.5 244.167,187.5 246.5,187.5C 246.5,189.5 246.5,191.5 246.5,193.5C 244.721,195.344 242.388,196.01 239.5,195.5C 239.5,192.833 239.5,190.167 239.5,187.5 Z"/></g>
<g><path style="opacity:1" fill="#c41967" d="M 270.5,165.5 C 270.5,167.833 270.5,170.167 270.5,172.5C 270.5,177.5 270.5,182.5 270.5,187.5C 272.621,187.675 274.621,187.341 276.5,186.5C 283.833,186.5 291.167,186.5 298.5,186.5C 298.806,189.385 298.473,192.052 297.5,194.5C 295.167,194.5 292.833,194.5 290.5,194.5C 291.99,192.72 293.99,192.054 296.5,192.5C 296.5,190.833 296.5,189.167 296.5,187.5C 290.122,187.295 283.789,187.628 277.5,188.5C 277.5,190.5 277.5,192.5 277.5,194.5C 279.735,194.205 281.735,194.539 283.5,195.5C 278.833,195.5 274.167,195.5 269.5,195.5C 269.5,195.167 269.5,194.833 269.5,194.5C 269.5,187.167 269.5,179.833 269.5,172.5C 269.198,169.941 269.532,167.607 270.5,165.5 Z"/></g>
<g><path style="opacity:1" fill="#e6f477" d="M 219.5,195.5 C 221.5,195.5 223.5,195.5 225.5,195.5C 225.983,199.577 224.316,201.91 220.5,202.5C 220.784,204.415 220.451,206.081 219.5,207.5C 220.201,203.413 220.201,199.413 219.5,195.5 Z"/></g>
<g><path style="opacity:1" fill="#232914" d="M 221.5,193.5 C 223.5,193.5 225.5,193.5 227.5,193.5C 227.5,195.833 227.5,198.167 227.5,200.5C 229.5,200.5 231.5,200.5 233.5,200.5C 233.833,201.167 234.167,201.833 234.5,202.5C 231.833,202.5 229.167,202.5 226.5,202.5C 226.802,199.941 226.468,197.607 225.5,195.5C 223.5,195.5 221.5,195.5 219.5,195.5C 219.5,195.167 219.5,194.833 219.5,194.5C 220.492,194.672 221.158,194.338 221.5,193.5 Z"/></g>
<g><path style="opacity:1" fill="#33daed" d="M 269.5,195.5 C 269.5,197.5 269.5,199.5 269.5,201.5C 267.167,201.5 264.833,201.5 262.5,201.5C 262.5,199.5 262.5,197.5 262.5,195.5C 264.833,195.5 267.167,195.5 269.5,195.5 Z"/></g>
<g><path style="opacity:1" fill="#580229" d="M 290.5,194.5 C 292.833,194.5 295.167,194.5 297.5,194.5C 295.735,195.461 293.735,195.795 291.5,195.5C 291.5,202.5 291.5,209.5 291.5,216.5C 286.968,216.818 282.634,216.485 278.5,215.5C 282.5,215.5 286.5,215.5 290.5,215.5C 290.5,209.167 290.5,202.833 290.5,196.5C 290.5,195.833 290.5,195.167 290.5,194.5 Z"/></g>
<g><path style="opacity:1" fill="#f5f315" d="M 205.5,195.5 C 205.5,197.5 205.5,199.5 205.5,201.5C 207.5,201.5 209.5,201.5 211.5,201.5C 211.5,199.5 211.5,197.5 211.5,195.5C 214.167,195.5 216.833,195.5 219.5,195.5C 220.201,199.413 220.201,203.413 219.5,207.5C 219.5,207.833 219.5,208.167 219.5,208.5C 213.5,207.167 211.167,209.5 212.5,215.5C 212.167,215.5 211.833,215.5 211.5,215.5C 211.5,213.167 211.5,210.833 211.5,208.5C 207.5,208.5 203.5,208.5 199.5,208.5C 199.5,203.833 199.5,199.167 199.5,194.5C 201.735,194.205 203.735,194.539 205.5,195.5 Z"/></g>
<g><path style="opacity:1" fill="#fcfd6e" d="M 205.5,195.5 C 207.5,195.5 209.5,195.5 211.5,195.5C 211.5,197.5 211.5,199.5 211.5,201.5C 209.5,201.5 207.5,201.5 205.5,201.5C 205.5,199.5 205.5,197.5 205.5,195.5 Z"/></g>
<g><path style="opacity:1" fill="#fa7fb0" d="M 269.5,195.5 C 274.167,195.5 278.833,195.5 283.5,195.5C 283.5,197.5 283.5,199.5 283.5,201.5C 279.167,201.5 274.833,201.5 270.5,201.5C 270.167,201.5 269.833,201.5 269.5,201.5C 269.5,199.5 269.5,197.5 269.5,195.5 Z"/></g>
<g><path style="opacity:1" fill="#4d4850" d="M 138.5,105.5 C 138.5,106.167 138.5,106.833 138.5,107.5C 138.5,107.833 138.5,108.167 138.5,108.5C 138.5,161.5 138.5,214.5 138.5,267.5C 138.5,269.833 138.5,272.167 138.5,274.5C 137.501,219.336 137.168,164.003 137.5,108.5C 135.5,108.5 133.5,108.5 131.5,108.5C 133.974,107.895 136.307,106.895 138.5,105.5 Z"/></g>
<g><path style="opacity:1" fill="#9fdf8b" d="M 225.5,195.5 C 226.468,197.607 226.802,199.941 226.5,202.5C 229.167,202.5 231.833,202.5 234.5,202.5C 234.5,204.5 234.5,206.5 234.5,208.5C 233.549,207.081 233.216,205.415 233.5,203.5C 231.167,203.5 228.833,203.5 226.5,203.5C 226.5,205.167 226.5,206.833 226.5,208.5C 224.167,208.5 221.833,208.5 219.5,208.5C 219.5,208.167 219.5,207.833 219.5,207.5C 220.451,206.081 220.784,204.415 220.5,202.5C 224.316,201.91 225.983,199.577 225.5,195.5 Z"/></g>
<g><path style="opacity:1" fill="#82ef72" d="M 262.5,201.5 C 264.833,201.5 267.167,201.5 269.5,201.5C 269.5,204.167 269.5,206.833 269.5,209.5C 267.744,208.448 267.077,206.781 267.5,204.5C 265.833,204.5 264.167,204.5 262.5,204.5C 262.714,206.144 262.38,207.644 261.5,209C 259.19,209.497 256.857,209.663 254.5,209.5C 254.5,208.167 254.5,206.833 254.5,205.5C 254.5,204.5 254.5,203.5 254.5,202.5C 257.385,202.806 260.052,202.473 262.5,201.5 Z"/></g>
<g><path style="opacity:1" fill="#f81274" d="M 290.5,194.5 C 290.5,195.167 290.5,195.833 290.5,196.5C 289.517,200.298 289.183,204.298 289.5,208.5C 283.721,208.591 278.054,207.925 272.5,206.5C 272.5,205.167 272.5,203.833 272.5,202.5C 276.514,202.666 280.514,202.499 284.5,202C 286.1,199.36 285.766,197.193 283.5,195.5C 281.735,194.539 279.735,194.205 277.5,194.5C 277.5,192.5 277.5,190.5 277.5,188.5C 283.789,187.628 290.122,187.295 296.5,187.5C 296.5,189.167 296.5,190.833 296.5,192.5C 293.99,192.054 291.99,192.72 290.5,194.5 Z"/></g>
<g><path style="opacity:1" fill="#244119" d="M 234.5,202.5 C 235.224,204.218 235.891,206.052 236.5,208C 242.157,208.499 247.824,208.666 253.5,208.5C 253.263,207.209 253.596,206.209 254.5,205.5C 254.5,206.833 254.5,208.167 254.5,209.5C 254.167,209.5 253.833,209.5 253.5,209.5C 248.5,209.5 243.5,209.5 238.5,209.5C 236.901,209.768 235.568,209.434 234.5,208.5C 234.5,206.5 234.5,204.5 234.5,202.5 Z"/></g>
<g><path style="opacity:1" fill="#a86e61" d="M 269.5,201.5 C 269.833,201.5 270.167,201.5 270.5,201.5C 270.5,203.833 270.5,206.167 270.5,208.5C 272.415,208.216 274.081,208.549 275.5,209.5C 273.5,209.5 271.5,209.5 269.5,209.5C 269.5,206.833 269.5,204.167 269.5,201.5 Z"/></g>
<g><path style="opacity:1" fill="#d01b63" d="M 283.5,195.5 C 285.766,197.193 286.1,199.36 284.5,202C 280.514,202.499 276.514,202.666 272.5,202.5C 272.5,203.833 272.5,205.167 272.5,206.5C 278.054,207.925 283.721,208.591 289.5,208.5C 289.183,204.298 289.517,200.298 290.5,196.5C 290.5,202.833 290.5,209.167 290.5,215.5C 286.5,215.5 282.5,215.5 278.5,215.5C 278.167,215.5 277.833,215.5 277.5,215.5C 277.795,213.265 277.461,211.265 276.5,209.5C 276.167,209.5 275.833,209.5 275.5,209.5C 274.081,208.549 272.415,208.216 270.5,208.5C 270.5,206.167 270.5,203.833 270.5,201.5C 274.833,201.5 279.167,201.5 283.5,201.5C 283.5,199.5 283.5,197.5 283.5,195.5 Z"/></g>
<g><path style="opacity:1" fill="#f0c411" d="M 199.5,208.5 C 203.5,208.5 207.5,208.5 211.5,208.5C 211.5,210.833 211.5,213.167 211.5,215.5C 207.5,215.5 203.5,215.5 199.5,215.5C 199.5,213.167 199.5,210.833 199.5,208.5 Z"/></g>
<g><path style="opacity:1" fill="#39f251" d="M 234.5,208.5 C 235.568,209.434 236.901,209.768 238.5,209.5C 238.5,211.5 238.5,213.5 238.5,215.5C 243.5,215.5 248.5,215.5 253.5,215.5C 253.5,213.5 253.5,211.5 253.5,209.5C 253.833,209.5 254.167,209.5 254.5,209.5C 256.857,209.663 259.19,209.497 261.5,209C 262.38,207.644 262.714,206.144 262.5,204.5C 264.167,204.5 265.833,204.5 267.5,204.5C 267.077,206.781 267.744,208.448 269.5,209.5C 271.265,210.461 273.265,210.795 275.5,210.5C 275.5,212.5 275.5,214.5 275.5,216.5C 268.167,216.5 260.833,216.5 253.5,216.5C 253.5,218.5 253.5,220.5 253.5,222.5C 248.821,222.666 244.155,222.499 239.5,222C 238.594,220.301 238.261,218.467 238.5,216.5C 230.5,216.5 222.5,216.5 214.5,216.5C 214.167,216.5 213.833,216.5 213.5,216.5C 213.5,215.833 213.167,215.5 212.5,215.5C 211.167,209.5 213.5,207.167 219.5,208.5C 221.833,208.5 224.167,208.5 226.5,208.5C 226.5,206.833 226.5,205.167 226.5,203.5C 228.833,203.5 231.167,203.5 233.5,203.5C 233.216,205.415 233.549,207.081 234.5,208.5 Z"/></g>
<g><path style="opacity:1" fill="#a2f373" d="M 238.5,209.5 C 243.5,209.5 248.5,209.5 253.5,209.5C 253.5,211.5 253.5,213.5 253.5,215.5C 248.5,215.5 243.5,215.5 238.5,215.5C 238.5,213.5 238.5,211.5 238.5,209.5 Z"/></g>
<g><path style="opacity:1" fill="#20c66c" d="M 269.5,209.5 C 271.5,209.5 273.5,209.5 275.5,209.5C 275.833,209.5 276.167,209.5 276.5,209.5C 276.647,214.214 276.314,218.881 275.5,223.5C 268.825,223.334 262.158,223.5 255.5,224C 253.845,225.444 253.178,227.278 253.5,229.5C 253.5,230.167 253.5,230.833 253.5,231.5C 252.596,232.209 252.263,233.209 252.5,234.5C 248.5,234.5 244.5,234.5 240.5,234.5C 240.88,232.302 240.213,230.635 238.5,229.5C 238.5,227.167 238.5,224.833 238.5,222.5C 230.5,222.5 222.5,222.5 214.5,222.5C 214.5,220.5 214.5,218.5 214.5,216.5C 222.5,216.5 230.5,216.5 238.5,216.5C 238.261,218.467 238.594,220.301 239.5,222C 244.155,222.499 248.821,222.666 253.5,222.5C 253.5,220.5 253.5,218.5 253.5,216.5C 260.833,216.5 268.167,216.5 275.5,216.5C 275.5,214.5 275.5,212.5 275.5,210.5C 273.265,210.795 271.265,210.461 269.5,209.5 Z"/></g>
<g><path style="opacity:1" fill="#e8629d" d="M 313.5,221.5 C 311.167,221.5 308.833,221.5 306.5,221.5C 306.5,219.5 306.5,217.5 306.5,215.5C 308.833,215.5 311.167,215.5 313.5,215.5C 313.5,217.5 313.5,219.5 313.5,221.5 Z"/></g>
<g><path style="opacity:1" fill="#d32066" d="M 306.5,221.5 C 308.833,221.5 311.167,221.5 313.5,221.5C 315.833,221.5 318.167,221.5 320.5,221.5C 320.5,223.833 320.5,226.167 320.5,228.5C 318.167,228.5 315.833,228.5 313.5,228.5C 315.238,234.927 312.905,237.594 306.5,236.5C 306.5,233.833 306.5,231.167 306.5,228.5C 304.5,228.5 302.5,228.5 300.5,228.5C 300.5,226.167 300.5,223.833 300.5,221.5C 302.5,221.5 304.5,221.5 306.5,221.5 Z"/></g>
<g><path style="opacity:1" fill="#1fa777" d="M 276.5,209.5 C 277.461,211.265 277.795,213.265 277.5,215.5C 277.819,220.363 277.486,225.03 276.5,229.5C 268.833,229.5 261.167,229.5 253.5,229.5C 253.178,227.278 253.845,225.444 255.5,224C 262.158,223.5 268.825,223.334 275.5,223.5C 276.314,218.881 276.647,214.214 276.5,209.5 Z"/></g>
<g><path style="opacity:1" fill="#1ca678" d="M 213.5,216.5 C 213.833,216.5 214.167,216.5 214.5,216.5C 214.5,218.5 214.5,220.5 214.5,222.5C 222.5,222.5 230.5,222.5 238.5,222.5C 238.5,224.833 238.5,227.167 238.5,229.5C 230.167,229.5 221.833,229.5 213.5,229.5C 213.5,225.167 213.5,220.833 213.5,216.5 Z"/></g>
<g><path style="opacity:1" fill="#fa0d65" d="M 313.5,228.5 C 311.72,229.99 311.054,231.99 311.5,234.5C 310.5,234.5 309.5,234.5 308.5,234.5C 309.815,229.164 307.815,226.497 302.5,226.5C 302.5,225.5 302.5,224.5 302.5,223.5C 307.833,223.5 313.167,223.5 318.5,223.5C 318.5,224.833 318.5,226.167 318.5,227.5C 316.585,227.216 314.919,227.549 313.5,228.5 Z"/></g>
<g><path style="opacity:1" fill="#324e3c" d="M 199.5,215.5 C 203.5,215.5 207.5,215.5 211.5,215.5C 211.833,215.5 212.167,215.5 212.5,215.5C 213.167,215.5 213.5,215.833 213.5,216.5C 213.5,220.833 213.5,225.167 213.5,229.5C 221.833,229.5 230.167,229.5 238.5,229.5C 238.5,232.167 238.5,234.833 238.5,237.5C 237.532,235.393 237.198,233.059 237.5,230.5C 229.167,230.5 220.833,230.5 212.5,230.5C 212.5,225.833 212.5,221.167 212.5,216.5C 207.968,216.818 203.634,216.485 199.5,215.5 Z"/></g>
<g><path style="opacity:1" fill="#194d46" d="M 253.5,229.5 C 261.167,229.5 268.833,229.5 276.5,229.5C 269.352,230.492 262.019,230.825 254.5,230.5C 254.802,233.059 254.468,235.393 253.5,237.5C 253.5,235.5 253.5,233.5 253.5,231.5C 253.5,230.833 253.5,230.167 253.5,229.5 Z"/></g>
<g><path style="opacity:1" fill="#2aa37a" d="M 238.5,229.5 C 240.213,230.635 240.88,232.302 240.5,234.5C 244.5,234.5 248.5,234.5 252.5,234.5C 252.263,233.209 252.596,232.209 253.5,231.5C 253.5,233.5 253.5,235.5 253.5,237.5C 248.5,237.5 243.5,237.5 238.5,237.5C 238.5,234.833 238.5,232.167 238.5,229.5 Z"/></g>
<g><path style="opacity:1" fill="#dde5cf" d="M 327.5,107.5 C 332.167,107.5 336.833,107.5 341.5,107.5C 341.5,163.167 341.5,218.833 341.5,274.5C 339.833,274.5 338.167,274.5 336.5,274.5C 336.832,220.997 336.499,167.664 335.5,114.5C 332.833,114.5 330.167,114.5 327.5,114.5C 327.5,112.5 327.5,110.5 327.5,108.5C 327.5,108.167 327.5,107.833 327.5,107.5 Z"/></g>
<g><path style="opacity:1" fill="#9c9e30" d="M 197.5,251.5 C 197.5,254.167 197.5,256.833 197.5,259.5C 197.5,259.833 197.5,260.167 197.5,260.5C 185.833,260.5 174.167,260.5 162.5,260.5C 162.5,257.5 162.5,254.5 162.5,251.5C 174.167,251.5 185.833,251.5 197.5,251.5 Z"/></g>
<g><path style="opacity:1" fill="#f2f61c" d="M 163.5,252.5 C 174.5,252.5 185.5,252.5 196.5,252.5C 196.5,254.833 196.5,257.167 196.5,259.5C 185.828,259.667 175.161,259.5 164.5,259C 163.577,256.959 163.244,254.792 163.5,252.5 Z"/></g>
<g><path style="opacity:1" fill="#46d1f5" d="M 197.5,251.5 C 224.167,251.5 250.833,251.5 277.5,251.5C 277.5,254.167 277.5,256.833 277.5,259.5C 250.833,259.5 224.167,259.5 197.5,259.5C 197.5,256.833 197.5,254.167 197.5,251.5 Z"/></g>
<g><path style="opacity:1" fill="#1c122f" d="M 131.5,108.5 C 133.5,108.5 135.5,108.5 137.5,108.5C 137.168,164.003 137.501,219.336 138.5,274.5C 140.833,274.5 143.167,274.5 145.5,274.5C 145.5,276.833 145.5,279.167 145.5,281.5C 145.802,284.059 145.468,286.393 144.5,288.5C 138.5,289.833 136.167,287.5 137.5,281.5C 135.208,281.756 133.041,281.423 131,280.5C 130.168,222.999 130.335,165.665 131.5,108.5 Z"/></g>
<g><path style="opacity:1" fill="#454061" d="M 277.5,251.5 C 293.5,251.5 309.5,251.5 325.5,251.5C 325.5,254.167 325.5,256.833 325.5,259.5C 309.5,259.5 293.5,259.5 277.5,259.5C 277.5,256.833 277.5,254.167 277.5,251.5 Z"/></g>
<g><path style="opacity:1" fill="#1e1109" d="M 197.5,251.5 C 185.833,251.5 174.167,251.5 162.5,251.5C 162.5,254.5 162.5,257.5 162.5,260.5C 174.167,260.5 185.833,260.5 197.5,260.5C 185.674,261.66 173.674,261.826 161.5,261C 160.39,257.551 160.39,254.051 161.5,250.5C 173.678,250.172 185.678,250.505 197.5,251.5 Z"/></g>
<g><path style="opacity:1" fill="#342141" d="M 355.5,115.5 C 355.833,115.5 356.167,115.5 356.5,115.5C 356.333,166.501 356.5,217.501 357,268.5C 357.249,269.624 357.749,270.624 358.5,271.5C 359.167,268.167 359.833,264.833 360.5,261.5C 361.791,265.045 361.791,268.545 360.5,272C 361.5,272.333 362.5,272.667 363.5,273C 358.756,273.513 354.09,275.013 349.5,277.5C 349.67,278.822 349.337,279.989 348.5,281C 346.19,281.497 343.857,281.663 341.5,281.5C 341.5,279.167 341.5,276.833 341.5,274.5C 343.833,274.5 346.167,274.5 348.5,274.5C 348.5,272.167 348.5,269.833 348.5,267.5C 350.833,267.5 353.167,267.5 355.5,267.5C 355.5,216.833 355.5,166.167 355.5,115.5 Z"/></g>
<g><path style="opacity:1" fill="#edf7f2" d="M 146.5,268.5 C 146.5,268.167 146.5,267.833 146.5,267.5C 148.833,267.5 151.167,267.5 153.5,267.5C 153.5,269.5 153.5,271.5 153.5,273.5C 213.833,273.5 274.167,273.5 334.5,273.5C 334.5,274.167 334.5,274.833 334.5,275.5C 273.499,275.667 212.499,275.5 151.5,275C 153.825,269.846 152.158,267.679 146.5,268.5 Z"/></g>
<g><path style="opacity:1" fill="#d7dbcb" d="M 146.5,268.5 C 152.158,267.679 153.825,269.846 151.5,275C 212.499,275.5 273.499,275.667 334.5,275.5C 334.5,277.167 334.5,278.833 334.5,280.5C 272.484,280.811 210.484,280.478 148.5,279.5C 147.09,276.05 146.424,272.384 146.5,268.5 Z"/></g>
<g><path style="opacity:1" fill="#544663" d="M 370.5,274.5 C 370.5,276.833 370.5,279.167 370.5,281.5C 368.167,281.5 365.833,281.5 363.5,281.5C 363.5,279.167 363.5,276.833 363.5,274.5C 365.833,274.5 368.167,274.5 370.5,274.5 Z"/></g>
<g><path style="opacity:1" fill="#767a8d" d="M 370.5,274.5 C 372.833,274.5 375.167,274.5 377.5,274.5C 377.5,276.833 377.5,279.167 377.5,281.5C 375.167,281.5 372.833,281.5 370.5,281.5C 370.5,279.167 370.5,276.833 370.5,274.5 Z"/></g>
<g><path style="opacity:1" fill="#1b0f2e" d="M 377.5,274.5 C 381.846,274.334 386.179,274.501 390.5,275C 391.423,277.041 391.756,279.208 391.5,281.5C 393.833,281.5 396.167,281.5 398.5,281.5C 398.5,283.833 398.5,286.167 398.5,288.5C 393.833,288.5 389.167,288.5 384.5,288.5C 384.5,286.167 384.5,283.833 384.5,281.5C 382.167,281.5 379.833,281.5 377.5,281.5C 377.5,279.167 377.5,276.833 377.5,274.5 Z"/></g>
<g><path style="opacity:1" fill="#6a6678" d="M 153.5,281.5 C 213.833,281.5 274.167,281.5 334.5,281.5C 275.271,283.169 215.771,284.169 156,284.5C 155.329,283.748 154.496,283.414 153.5,283.5C 153.5,282.833 153.5,282.167 153.5,281.5 Z"/></g>
<g><path style="opacity:1" fill="#6f6586" d="M 334.5,281.5 C 334.833,281.5 335.167,281.5 335.5,281.5C 335.5,283.833 335.5,286.167 335.5,288.5C 274.833,288.5 214.167,288.5 153.5,288.5C 153.5,286.833 153.5,285.167 153.5,283.5C 154.496,283.414 155.329,283.748 156,284.5C 215.771,284.169 275.271,283.169 334.5,281.5 Z"/></g>
<g><path style="opacity:1" fill="#79738b" d="M 377.5,281.5 C 379.833,281.5 382.167,281.5 384.5,281.5C 384.5,283.833 384.5,286.167 384.5,288.5C 382.167,288.5 379.833,288.5 377.5,288.5C 377.5,286.167 377.5,283.833 377.5,281.5 Z"/></g>
<g><path style="opacity:1" fill="#443553" d="M 145.5,281.5 C 148.167,281.5 150.833,281.5 153.5,281.5C 153.5,282.167 153.5,282.833 153.5,283.5C 153.5,285.167 153.5,286.833 153.5,288.5C 214.167,288.5 274.833,288.5 335.5,288.5C 273.002,289.499 210.336,289.832 147.5,289.5C 146.833,289.5 146.167,289.5 145.5,289.5C 144.833,289.5 144.5,289.167 144.5,288.5C 145.468,286.393 145.802,284.059 145.5,281.5 Z"/></g>
<g><path style="opacity:1" fill="#3c3958" d="M 370.5,281.5 C 372.833,281.5 375.167,281.5 377.5,281.5C 377.5,283.833 377.5,286.167 377.5,288.5C 379.833,288.5 382.167,288.5 384.5,288.5C 389.167,288.5 393.833,288.5 398.5,288.5C 403.032,288.182 407.366,288.515 411.5,289.5C 407.167,289.5 402.833,289.5 398.5,289.5C 393.833,289.5 389.167,289.5 384.5,289.5C 379.833,289.5 375.167,289.5 370.5,289.5C 370.5,290.833 370.5,292.167 370.5,293.5C 369.837,291.958 369.17,290.291 368.5,288.5C 367.005,289.705 365.672,289.705 364.5,288.5C 366.379,287.659 368.379,287.325 370.5,287.5C 370.5,285.5 370.5,283.5 370.5,281.5 Z"/></g>
<g><path style="opacity:1" fill="#1e0b29" d="M 356.5,115.5 C 358.5,115.5 360.5,115.5 362.5,115.5C 361.838,166.511 362.505,217.178 364.5,267.5C 368.833,267.5 373.167,267.5 377.5,267.5C 377.5,269.833 377.5,272.167 377.5,274.5C 375.167,274.5 372.833,274.5 370.5,274.5C 368.167,274.5 365.833,274.5 363.5,274.5C 363.5,276.833 363.5,279.167 363.5,281.5C 365.833,281.5 368.167,281.5 370.5,281.5C 370.5,283.5 370.5,285.5 370.5,287.5C 368.379,287.325 366.379,287.659 364.5,288.5C 362.656,286.721 361.99,284.388 362.5,281.5C 358.167,281.5 353.833,281.5 349.5,281.5C 349.5,286.5 349.5,291.5 349.5,296.5C 327.831,296.333 306.164,296.5 284.5,297C 283.944,297.383 283.611,297.883 283.5,298.5C 283.5,300.167 283.5,301.833 283.5,303.5C 281.167,303.5 278.833,303.5 276.5,303.5C 276.5,301.167 276.5,298.833 276.5,296.5C 270.833,296.5 265.167,296.5 259.5,296.5C 245.833,296.5 232.167,296.5 218.5,296.5C 218.5,298.833 218.5,301.167 218.5,303.5C 216.5,303.5 214.5,303.5 212.5,303.5C 212.492,300.455 212.159,297.455 211.5,294.5C 190.833,294.5 170.167,294.5 149.5,294.5C 149.608,292.486 148.942,290.82 147.5,289.5C 210.336,289.832 273.002,289.499 335.5,288.5C 335.5,286.167 335.5,283.833 335.5,281.5C 337.5,281.5 339.5,281.5 341.5,281.5C 343.857,281.663 346.19,281.497 348.5,281C 349.337,279.989 349.67,278.822 349.5,277.5C 354.09,275.013 358.756,273.513 363.5,273C 362.5,272.667 361.5,272.333 360.5,272C 361.791,268.545 361.791,265.045 360.5,261.5C 359.833,264.833 359.167,268.167 358.5,271.5C 357.749,270.624 357.249,269.624 357,268.5C 356.5,217.501 356.333,166.501 356.5,115.5 Z"/></g>
<g><path style="opacity:0.501" fill="#071332" d="M 145.5,289.5 C 146.167,289.5 146.833,289.5 147.5,289.5C 148.942,290.82 149.608,292.486 149.5,294.5C 170.167,294.5 190.833,294.5 211.5,294.5C 212.159,297.455 212.492,300.455 212.5,303.5C 211.833,303.5 211.167,303.5 210.5,303.5C 210.5,301.167 210.5,298.833 210.5,296.5C 188.833,296.5 167.167,296.5 145.5,296.5C 145.5,294.167 145.5,291.833 145.5,289.5 Z"/></g>
<g><path style="opacity:1" fill="#68617f" d="M 259.5,296.5 C 259.5,298.833 259.5,301.167 259.5,303.5C 245.833,303.5 232.167,303.5 218.5,303.5C 218.5,301.167 218.5,298.833 218.5,296.5C 232.167,296.5 245.833,296.5 259.5,296.5 Z"/></g>
<g><path style="opacity:1" fill="#493b5e" d="M 259.5,296.5 C 265.167,296.5 270.833,296.5 276.5,296.5C 276.5,298.833 276.5,301.167 276.5,303.5C 274.167,303.5 271.833,303.5 269.5,303.5C 266.167,303.5 262.833,303.5 259.5,303.5C 259.5,301.167 259.5,298.833 259.5,296.5 Z"/></g>
<g><path style="opacity:1" fill="#a4a8ad" d="M 210.5,303.5 C 211.167,303.5 211.833,303.5 212.5,303.5C 214.5,303.5 216.5,303.5 218.5,303.5C 232.167,303.5 245.833,303.5 259.5,303.5C 262.833,303.5 266.167,303.5 269.5,303.5C 269.821,308.695 269.487,313.695 268.5,318.5C 268.5,313.833 268.5,309.167 268.5,304.5C 249.5,304.5 230.5,304.5 211.5,304.5C 211.782,307.347 211.782,310.013 211.5,312.5C 208.579,311.593 205.579,311.26 202.5,311.5C 202.5,311.167 202.5,310.833 202.5,310.5C 205.167,310.5 207.833,310.5 210.5,310.5C 210.5,308.167 210.5,305.833 210.5,303.5 Z"/></g>
<g><path style="opacity:1" fill="#14142a" d="M 210.5,303.5 C 210.5,305.833 210.5,308.167 210.5,310.5C 207.833,310.5 205.167,310.5 202.5,310.5C 201.406,304.095 204.073,301.762 210.5,303.5 Z"/></g>
<g><path style="opacity:1" fill="#d7dfd0" d="M 268.5,318.5 C 246.5,318.5 224.5,318.5 202.5,318.5C 202.5,316.167 202.5,313.833 202.5,311.5C 205.579,311.26 208.579,311.593 211.5,312.5C 211.782,310.013 211.782,307.347 211.5,304.5C 230.5,304.5 249.5,304.5 268.5,304.5C 268.5,309.167 268.5,313.833 268.5,318.5 Z"/></g>
<g><path style="opacity:1" fill="#675d7d" d="M 269.5,303.5 C 271.833,303.5 274.167,303.5 276.5,303.5C 278.833,303.5 281.167,303.5 283.5,303.5C 283.5,306.167 283.5,308.833 283.5,311.5C 286.167,311.5 288.833,311.5 291.5,311.5C 291.5,313.833 291.5,316.167 291.5,318.5C 293.833,318.5 296.167,318.5 298.5,318.5C 298.5,320.5 298.5,322.5 298.5,324.5C 263.985,324.592 229.652,324.592 195.5,324.5C 197.833,324.5 200.167,324.5 202.5,324.5C 202.5,322.5 202.5,320.5 202.5,318.5C 224.5,318.5 246.5,318.5 268.5,318.5C 269.487,313.695 269.821,308.695 269.5,303.5 Z"/></g>
<g><path style="opacity:1" fill="#d2d6d0" d="M 202.5,318.5 C 202.5,320.5 202.5,322.5 202.5,324.5C 200.167,324.5 197.833,324.5 195.5,324.5C 195.5,322.5 195.5,320.5 195.5,318.5C 197.833,318.5 200.167,318.5 202.5,318.5 Z"/></g>
<g><path style="opacity:0.102" fill="#2e3b56" d="M 193.5,318.5 C 192.432,319.434 191.099,319.768 189.5,319.5C 189.5,321.5 189.5,323.5 189.5,325.5C 152.5,325.5 115.5,325.5 78.5,325.5C 78.5,327.5 78.5,329.5 78.5,331.5C 161.167,331.5 243.833,331.5 326.5,331.5C 327.167,331.5 327.5,331.833 327.5,332.5C 323.167,332.5 318.833,332.5 314.5,332.5C 235.5,332.5 156.5,332.5 77.5,332.5C 77.5,331.833 77.1667,331.5 76.5,331.5C 77.3686,329.283 77.702,326.95 77.5,324.5C 114.167,324.5 150.833,324.5 187.5,324.5C 186.5,319.5 188.5,317.5 193.5,318.5 Z"/></g>
<g><path style="opacity:1" fill="#1e0e27" d="M 202.5,310.5 C 202.5,310.833 202.5,311.167 202.5,311.5C 202.5,313.833 202.5,316.167 202.5,318.5C 200.167,318.5 197.833,318.5 195.5,318.5C 195.5,320.5 195.5,322.5 195.5,324.5C 229.652,324.592 263.985,324.592 298.5,324.5C 299.434,323.432 299.768,322.099 299.5,320.5C 301.167,320.5 302.833,320.5 304.5,320.5C 303.965,323.238 304.965,325.072 307.5,326C 313.825,326.5 320.158,326.666 326.5,326.5C 326.5,328.167 326.5,329.833 326.5,331.5C 243.833,331.5 161.167,331.5 78.5,331.5C 78.5,329.5 78.5,327.5 78.5,325.5C 115.5,325.5 152.5,325.5 189.5,325.5C 189.5,323.5 189.5,321.5 189.5,319.5C 191.099,319.768 192.432,319.434 193.5,318.5C 195.148,316.544 195.815,314.211 195.5,311.5C 197.806,311.007 200.139,310.674 202.5,310.5 Z"/></g>
<g><path style="opacity:1" fill="#f5f8f9" d="M 77.5,332.5 C 156.5,332.5 235.5,332.5 314.5,332.5C 314.806,335.385 314.473,338.052 313.5,340.5C 234.763,340.83 156.096,340.497 77.5,339.5C 77.5,337.167 77.5,334.833 77.5,332.5 Z"/></g>
<g><path style="opacity:1" fill="#756f8a" d="M 327.5,332.5 C 328.468,334.607 328.802,336.941 328.5,339.5C 328.5,341.833 328.5,344.167 328.5,346.5C 326.167,346.5 323.833,346.5 321.5,346.5C 321.5,344.5 321.5,342.5 321.5,340.5C 323.5,340.5 325.5,340.5 327.5,340.5C 327.5,337.833 327.5,335.167 327.5,332.5 Z"/></g>
<g><path style="opacity:0.733" fill="#1a1432" d="M 384.5,289.5 C 384.5,291.833 384.5,294.167 384.5,296.5C 389.167,296.5 393.833,296.5 398.5,296.5C 398.5,294.167 398.5,291.833 398.5,289.5C 402.833,289.5 407.167,289.5 411.5,289.5C 412.216,291.556 412.883,293.723 413.5,296C 417.833,296.333 422.167,296.667 426.5,297C 427.097,298.889 427.431,300.722 427.5,302.5C 431.796,303.328 436.129,303.828 440.5,304C 441.423,306.041 441.756,308.208 441.5,310.5C 444.044,310.104 446.211,310.771 448,312.5C 448.667,320.833 448.667,329.167 448,337.5C 443.92,338.3 439.753,338.8 435.5,339C 434.833,341 434.167,343 433.5,345C 431.423,345.192 429.423,345.692 427.5,346.5C 427.013,347.446 426.68,348.446 426.5,349.5C 427.139,352.475 427.639,355.475 428,358.5C 429.699,359.406 431.533,359.739 433.5,359.5C 433.994,368.178 434.161,376.844 434,385.5C 431.931,386.264 429.764,386.764 427.5,387C 426.657,388.787 426.49,390.62 427,392.5C 425.211,394.229 423.044,394.896 420.5,394.5C 420.527,399.544 418.027,402.21 413,402.5C 412.505,404.473 412.338,406.473 412.5,408.5C 407.833,408.5 403.167,408.5 398.5,408.5C 398.756,410.792 398.423,412.959 397.5,415C 392.184,415.683 386.85,416.183 381.5,416.5C 368.826,415.984 356.159,415.317 343.5,414.5C 342.652,412.591 342.318,410.591 342.5,408.5C 336.5,409.833 334.167,407.5 335.5,401.5C 333.167,401.5 330.833,401.5 328.5,401.5C 328.666,394.825 328.5,388.158 328,381.5C 322.562,379.02 320.062,380.687 320.5,386.5C 318.473,386.338 316.473,386.505 314.5,387C 313.833,389.333 313.167,391.667 312.5,394C 310.833,394.333 309.167,394.667 307.5,395C 306.897,396.825 306.23,398.659 305.5,400.5C 303.45,400.744 301.45,401.077 299.5,401.5C 299.167,401.5 298.833,401.5 298.5,401.5C 298.5,398.833 298.5,396.167 298.5,393.5C 301.167,393.5 303.833,393.5 306.5,393.5C 306.5,391.167 306.5,388.833 306.5,386.5C 308.833,386.5 311.167,386.5 313.5,386.5C 313.5,384.167 313.5,381.833 313.5,379.5C 315.833,379.5 318.167,379.5 320.5,379.5C 320.5,375.167 320.5,370.833 320.5,366.5C 326.927,368.238 329.594,365.905 328.5,359.5C 330.833,359.5 333.167,359.5 335.5,359.5C 335.5,352.833 335.5,346.167 335.5,339.5C 333.167,339.5 330.833,339.5 328.5,339.5C 328.802,336.941 328.468,334.607 327.5,332.5C 327.5,331.833 327.167,331.5 326.5,331.5C 326.5,329.833 326.5,328.167 326.5,326.5C 320.158,326.666 313.825,326.5 307.5,326C 304.965,325.072 303.965,323.238 304.5,320.5C 302.833,320.5 301.167,320.5 299.5,320.5C 299.768,322.099 299.434,323.432 298.5,324.5C 298.5,322.5 298.5,320.5 298.5,318.5C 296.167,318.5 293.833,318.5 291.5,318.5C 291.5,316.167 291.5,313.833 291.5,311.5C 288.833,311.5 286.167,311.5 283.5,311.5C 283.5,308.833 283.5,306.167 283.5,303.5C 283.5,301.833 283.5,300.167 283.5,298.5C 284.451,299.919 284.784,301.585 284.5,303.5C 286.833,303.5 289.167,303.5 291.5,303.5C 290.836,309.025 293.336,311.691 299,311.5C 298.138,317.472 300.638,319.805 306.5,318.5C 306.5,320.5 306.5,322.5 306.5,324.5C 313.175,324.334 319.842,324.5 326.5,325C 328.229,326.789 328.896,328.956 328.5,331.5C 333.167,331.5 337.833,331.5 342.5,331.5C 343.195,340.147 343.362,348.813 343,357.5C 343.519,358.516 344.353,359.182 345.5,359.5C 347.135,358.954 348.801,358.62 350.5,358.5C 350.5,356.5 350.5,354.5 350.5,352.5C 352.857,352.663 355.19,352.497 357.5,352C 358.097,350.111 358.431,348.278 358.5,346.5C 362.122,345.675 365.789,345.175 369.5,345C 369.955,342.688 370.955,340.688 372.5,339C 383.167,338.333 393.833,338.333 404.5,339C 405.167,341 405.833,343 406.5,345C 410.5,345.667 414.5,345.667 418.5,345C 419.167,343 419.833,341 420.5,339C 422.473,338.505 424.473,338.338 426.5,338.5C 425.99,335.612 426.656,333.279 428.5,331.5C 432.5,331.5 436.5,331.5 440.5,331.5C 440.5,327.167 440.5,322.833 440.5,318.5C 438.167,318.5 435.833,318.5 433.5,318.5C 433.5,320.5 433.5,322.5 433.5,324.5C 431.167,324.5 428.833,324.5 426.5,324.5C 426.5,322.5 426.5,320.5 426.5,318.5C 421.766,318.325 417.099,317.658 412.5,316.5C 412.054,314.632 411.721,312.799 411.5,311C 407.5,310.667 403.5,310.333 399.5,310C 398.331,307.993 397.665,305.827 397.5,303.5C 393.486,303.666 389.486,303.499 385.5,303C 384.833,301 384.167,299 383.5,297C 379.179,296.501 374.846,296.334 370.5,296.5C 370.5,295.5 370.5,294.5 370.5,293.5C 370.5,292.167 370.5,290.833 370.5,289.5C 375.167,289.5 379.833,289.5 384.5,289.5 Z M 342.5,366.5 C 340.799,366.034 339.299,366.034 338,366.5C 333.853,360.821 335.353,358.487 342.5,359.5C 342.5,361.833 342.5,364.167 342.5,366.5 Z M 335.5,380.5 C 333.167,380.5 330.833,380.5 328.5,380.5C 328.5,375.833 328.5,371.167 328.5,366.5C 330.833,366.5 333.167,366.5 335.5,366.5C 335.5,371.167 335.5,375.833 335.5,380.5 Z"/></g>
<g><path style="opacity:1" fill="#1a0b23" d="M 404.5,345.5 C 402.5,345.5 400.5,345.5 398.5,345.5C 389.833,345.5 381.167,345.5 372.5,345.5C 372.5,343.833 372.5,342.167 372.5,340.5C 383.167,340.5 393.833,340.5 404.5,340.5C 404.5,342.167 404.5,343.833 404.5,345.5 Z"/></g>
<g><path style="opacity:1" fill="#72718b" d="M 428.5,331.5 C 432.759,331.22 434.426,328.886 433.5,324.5C 433.5,322.5 433.5,320.5 433.5,318.5C 435.833,318.5 438.167,318.5 440.5,318.5C 440.5,322.833 440.5,327.167 440.5,331.5C 436.5,331.5 432.5,331.5 428.5,331.5 Z"/></g>
<g><path style="opacity:1" fill="#675c7b" d="M 426.5,310.5 C 428.833,310.5 431.167,310.5 433.5,310.5C 433.5,312.833 433.5,315.167 433.5,317.5C 431.167,317.5 428.833,317.5 426.5,317.5C 426.5,315.167 426.5,312.833 426.5,310.5 Z"/></g>
<g><path style="opacity:1" fill="#645f7b" d="M 412.5,303.5 C 417.167,303.5 421.833,303.5 426.5,303.5C 426.5,305.833 426.5,308.167 426.5,310.5C 421.833,310.5 417.167,310.5 412.5,310.5C 412.5,308.167 412.5,305.833 412.5,303.5 Z"/></g>
<g><path style="opacity:1" fill="#737388" d="M 398.5,296.5 C 403.167,296.5 407.833,296.5 412.5,296.5C 412.5,298.833 412.5,301.167 412.5,303.5C 407.833,303.5 403.167,303.5 398.5,303.5C 398.5,301.167 398.5,298.833 398.5,296.5 Z"/></g>
<g><path style="opacity:1" fill="#65617b" d="M 384.5,289.5 C 389.167,289.5 393.833,289.5 398.5,289.5C 398.5,291.833 398.5,294.167 398.5,296.5C 393.833,296.5 389.167,296.5 384.5,296.5C 384.5,294.167 384.5,291.833 384.5,289.5 Z"/></g>
<g><path style="opacity:1" fill="#858f9f" d="M 398.5,345.5 C 400.5,345.5 402.5,345.5 404.5,345.5C 405.338,345.842 405.672,346.508 405.5,347.5C 405.5,349.167 405.5,350.833 405.5,352.5C 403.167,352.5 400.833,352.5 398.5,352.5C 398.5,350.167 398.5,347.833 398.5,345.5 Z"/></g>
<g><path style="opacity:1" fill="#f9faf8" d="M 372.5,345.5 C 381.167,345.5 389.833,345.5 398.5,345.5C 398.5,347.833 398.5,350.167 398.5,352.5C 396.167,352.5 393.833,352.5 391.5,352.5C 391.5,354.833 391.5,357.167 391.5,359.5C 389.167,359.5 386.833,359.5 384.5,359.5C 384.5,361.833 384.5,364.167 384.5,366.5C 389.167,366.5 393.833,366.5 398.5,366.5C 399.01,369.388 398.344,371.721 396.5,373.5C 394.833,373.5 393.167,373.5 391.5,373.5C 391.5,375.833 391.5,378.167 391.5,380.5C 389.167,380.5 386.833,380.5 384.5,380.5C 384.5,382.5 384.5,384.5 384.5,386.5C 382.167,386.5 379.833,386.5 377.5,386.5C 377.5,388.833 377.5,391.167 377.5,393.5C 366.167,393.5 354.833,393.5 343.5,393.5C 343.5,384.5 343.5,375.5 343.5,366.5C 345.833,366.5 348.167,366.5 350.5,366.5C 350.5,364.167 350.5,361.833 350.5,359.5C 353.167,359.5 355.833,359.5 358.5,359.5C 358.5,357.167 358.5,354.833 358.5,352.5C 362.5,352.5 366.5,352.5 370.5,352.5C 369.99,349.612 370.656,347.279 372.5,345.5 Z"/></g>
<g><path style="opacity:1" fill="#1f0e27" d="M 425.5,359.5 C 423.5,359.5 421.5,359.5 419.5,359.5C 419.5,357.167 419.5,354.833 419.5,352.5C 417.167,352.5 414.833,352.5 412.5,352.5C 412.5,354.833 412.5,357.167 412.5,359.5C 407.637,359.181 402.97,359.514 398.5,360.5C 398.5,362.5 398.5,364.5 398.5,366.5C 393.833,366.5 389.167,366.5 384.5,366.5C 384.5,364.167 384.5,361.833 384.5,359.5C 386.833,359.5 389.167,359.5 391.5,359.5C 391.5,357.167 391.5,354.833 391.5,352.5C 393.833,352.5 396.167,352.5 398.5,352.5C 400.833,352.5 403.167,352.5 405.5,352.5C 405.5,350.833 405.5,349.167 405.5,347.5C 410.162,347.038 414.829,346.538 419.5,346C 420.249,344.266 420.749,342.433 421,340.5C 421.725,339.941 422.558,339.608 423.5,339.5C 425.5,340.5 427.5,341.5 429.5,342.5C 428.24,343.382 427.074,344.382 426,345.5C 425.501,350.155 425.334,354.821 425.5,359.5 Z"/></g>
<g><path style="opacity:1" fill="#edf0eb" d="M 77.5,339.5 C 77.5,341.833 77.5,344.167 77.5,346.5C 84.5,346.5 91.5,346.5 98.5,346.5C 98.5,349.167 98.5,351.833 98.5,354.5C 89.1667,354.5 79.8333,354.5 70.5,354.5C 70.5,356.833 70.5,359.167 70.5,361.5C 75.5,361.5 80.5,361.5 85.5,361.5C 85.5,363.833 85.5,366.167 85.5,368.5C 75.5837,368.819 65.7504,368.486 56,367.5C 55.5045,369.473 55.3379,371.473 55.5,373.5C 55.5,373.833 55.5,374.167 55.5,374.5C 55.5,376.5 55.5,378.5 55.5,380.5C 54.3991,381.598 53.0657,381.765 51.5,381C 51.5012,379.601 51.8346,378.101 52.5,376.5C 51.3112,375.571 49.9778,375.238 48.5,375.5C 48.5,377.167 48.5,378.833 48.5,380.5C 46.5,380.5 44.5,380.5 42.5,380.5C 42.5,378.5 42.5,376.5 42.5,374.5C 44.7354,374.795 46.7354,374.461 48.5,373.5C 48.5,371.167 48.5,368.833 48.5,366.5C 50.8333,366.5 53.1667,366.5 55.5,366.5C 55.5,364.5 55.5,362.5 55.5,360.5C 57.8333,360.5 60.1667,360.5 62.5,360.5C 62.5,355.5 62.5,350.5 62.5,345.5C 65.1667,345.5 67.8333,345.5 70.5,345.5C 70.5,343.5 70.5,341.5 70.5,339.5C 72.8333,339.5 75.1667,339.5 77.5,339.5 Z"/></g>
<g><path style="opacity:1" fill="#7e7d92" d="M 77.5,339.5 C 156.096,340.497 234.763,340.83 313.5,340.5C 313.5,342.5 313.5,344.5 313.5,346.5C 311.167,346.5 308.833,346.5 306.5,346.5C 306.5,349.167 306.5,351.833 306.5,354.5C 304.167,354.5 301.833,354.5 299.5,354.5C 299.802,357.059 299.468,359.393 298.5,361.5C 298.5,359.167 298.5,356.833 298.5,354.5C 298.5,352.167 298.5,349.833 298.5,347.5C 291.5,347.5 284.5,347.5 277.5,347.5C 274.833,347.5 272.167,347.5 269.5,347.5C 264.695,346.513 259.695,346.179 254.5,346.5C 254.5,349.167 254.5,351.833 254.5,354.5C 259.5,354.5 264.5,354.5 269.5,354.5C 270.594,360.905 267.927,363.238 261.5,361.5C 254.167,361.5 246.833,361.5 239.5,361.5C 237.167,361.5 234.833,361.5 232.5,361.5C 227.637,361.181 222.97,361.514 218.5,362.5C 216.283,361.631 213.95,361.298 211.5,361.5C 211.5,365.833 211.5,370.167 211.5,374.5C 201.833,374.5 192.167,374.5 182.5,374.5C 182.5,370.167 182.5,365.833 182.5,361.5C 180.167,361.5 177.833,361.5 175.5,361.5C 168.167,361.5 160.833,361.5 153.5,361.5C 151.167,361.5 148.833,361.5 146.5,361.5C 146.795,363.735 146.461,365.735 145.5,367.5C 145.5,365.5 145.5,363.5 145.5,361.5C 137.5,361.5 129.5,361.5 121.5,361.5C 119.167,361.5 116.833,361.5 114.5,361.5C 107.5,361.5 100.5,361.5 93.5,361.5C 91.477,361.285 89.1437,361.285 86.5,361.5C 86.5,365.833 86.5,370.167 86.5,374.5C 76.1667,374.5 65.8333,374.5 55.5,374.5C 55.5,374.167 55.5,373.833 55.5,373.5C 65.5,373.5 75.5,373.5 85.5,373.5C 85.5,371.833 85.5,370.167 85.5,368.5C 85.5,366.167 85.5,363.833 85.5,361.5C 80.5,361.5 75.5,361.5 70.5,361.5C 70.5,359.167 70.5,356.833 70.5,354.5C 79.8333,354.5 89.1667,354.5 98.5,354.5C 98.5,351.833 98.5,349.167 98.5,346.5C 91.5,346.5 84.5,346.5 77.5,346.5C 77.5,344.167 77.5,341.833 77.5,339.5 Z"/></g>
<g><path style="opacity:1" fill="#bcbfbb" d="M 246.5,347.5 C 239.833,347.5 233.167,347.5 226.5,347.5C 226.5,349.5 226.5,351.5 226.5,353.5C 233.167,353.5 239.833,353.5 246.5,353.5C 239.687,354.491 232.687,354.825 225.5,354.5C 225.5,351.833 225.5,349.167 225.5,346.5C 232.687,346.175 239.687,346.509 246.5,347.5 Z"/></g>
<g><path style="opacity:1" fill="#bdbfbe" d="M 159.5,347.5 C 152.833,347.5 146.167,347.5 139.5,347.5C 139.5,349.5 139.5,351.5 139.5,353.5C 146.167,353.5 152.833,353.5 159.5,353.5C 152.687,354.491 145.687,354.825 138.5,354.5C 138.5,351.833 138.5,349.167 138.5,346.5C 145.687,346.175 152.687,346.509 159.5,347.5 Z"/></g>
<g><path style="opacity:1" fill="#e8eddf" d="M 167.5,346.5 C 174.833,346.5 182.167,346.5 189.5,346.5C 189.5,349.167 189.5,351.833 189.5,354.5C 182.167,354.5 174.833,354.5 167.5,354.5C 167.5,351.833 167.5,349.167 167.5,346.5 Z"/></g>
<g><path style="opacity:1" fill="#c7cdc8" d="M 106.5,347.5 C 114.65,346.507 122.983,346.174 131.5,346.5C 131.5,349.167 131.5,351.833 131.5,354.5C 122.983,354.826 114.65,354.493 106.5,353.5C 112.509,353.666 118.509,353.499 124.5,353C 125.406,351.301 125.739,349.467 125.5,347.5C 119.167,347.5 112.833,347.5 106.5,347.5 Z"/></g>
<g><path style="opacity:1" fill="#f2fae4" d="M 246.5,347.5 C 246.5,349.5 246.5,351.5 246.5,353.5C 239.833,353.5 233.167,353.5 226.5,353.5C 226.5,351.5 226.5,349.5 226.5,347.5C 233.167,347.5 239.833,347.5 246.5,347.5 Z"/></g>
<g><path style="opacity:1" fill="#e7eedd" d="M 196.5,346.5 C 203.833,346.5 211.167,346.5 218.5,346.5C 218.5,349.167 218.5,351.833 218.5,354.5C 211.167,354.5 203.833,354.5 196.5,354.5C 196.5,351.833 196.5,349.167 196.5,346.5 Z"/></g>
<g><path style="opacity:1" fill="#f4fae5" d="M 159.5,347.5 C 159.5,349.5 159.5,351.5 159.5,353.5C 152.833,353.5 146.167,353.5 139.5,353.5C 139.5,351.5 139.5,349.5 139.5,347.5C 146.167,347.5 152.833,347.5 159.5,347.5 Z"/></g>
<g><path style="opacity:1" fill="#f3fae4" d="M 106.5,347.5 C 112.833,347.5 119.167,347.5 125.5,347.5C 125.739,349.467 125.406,351.301 124.5,353C 118.509,353.499 112.509,353.666 106.5,353.5C 106.5,351.5 106.5,349.5 106.5,347.5 Z"/></g>
<g><path style="opacity:1" fill="#ecf0e0" d="M 277.5,347.5 C 284.5,347.5 291.5,347.5 298.5,347.5C 298.5,349.833 298.5,352.167 298.5,354.5C 296.167,354.5 293.833,354.5 291.5,354.5C 286.833,354.5 282.167,354.5 277.5,354.5C 277.5,352.167 277.5,349.833 277.5,347.5 Z"/></g>
<g><path style="opacity:1" fill="#ecf1ef" d="M 269.5,347.5 C 269.5,349.833 269.5,352.167 269.5,354.5C 264.5,354.5 259.5,354.5 254.5,354.5C 254.5,351.833 254.5,349.167 254.5,346.5C 259.695,346.179 264.695,346.513 269.5,347.5 Z"/></g>
<g><path style="opacity:1" fill="#524863" d="M 291.5,354.5 C 293.833,354.5 296.167,354.5 298.5,354.5C 298.5,356.833 298.5,359.167 298.5,361.5C 296.167,361.5 293.833,361.5 291.5,361.5C 291.5,359.167 291.5,356.833 291.5,354.5 Z"/></g>
<g><path style="opacity:1" fill="#bbc0c2" d="M 425.5,359.5 C 426.468,361.607 426.802,363.941 426.5,366.5C 424.167,366.5 421.833,366.5 419.5,366.5C 419.5,368.833 419.5,371.167 419.5,373.5C 417.167,373.5 414.833,373.5 412.5,373.5C 412.5,371.167 412.5,368.833 412.5,366.5C 414.167,366.5 415.833,366.5 417.5,366.5C 417.626,364.8 418.293,363.3 419.5,362C 418.409,360.238 417.409,358.404 416.5,356.5C 415.618,357.76 414.618,358.926 413.5,360C 408.511,360.499 403.511,360.666 398.5,360.5C 402.97,359.514 407.637,359.181 412.5,359.5C 412.5,357.167 412.5,354.833 412.5,352.5C 414.833,352.5 417.167,352.5 419.5,352.5C 419.5,354.833 419.5,357.167 419.5,359.5C 421.5,359.5 423.5,359.5 425.5,359.5 Z"/></g>
<g><path style="opacity:1" fill="#19172e" d="M 76.5,331.5 C 77.1667,331.5 77.5,331.833 77.5,332.5C 77.5,334.833 77.5,337.167 77.5,339.5C 75.1667,339.5 72.8333,339.5 70.5,339.5C 70.5,341.5 70.5,343.5 70.5,345.5C 67.8333,345.5 65.1667,345.5 62.5,345.5C 62.5,350.5 62.5,355.5 62.5,360.5C 60.1667,360.5 57.8333,360.5 55.5,360.5C 55.5,362.5 55.5,364.5 55.5,366.5C 53.1667,366.5 50.8333,366.5 48.5,366.5C 48.1667,366.5 47.8333,366.5 47.5,366.5C 48.3414,364.621 48.6747,362.621 48.5,360.5C 50.5914,360.682 52.5914,360.348 54.5,359.5C 55.3275,355.204 55.8275,350.871 56,346.5C 61.2402,346.359 63.4069,343.693 62.5,338.5C 64.5273,338.662 66.5273,338.495 68.5,338C 69.1667,336 69.8333,334 70.5,332C 72.4727,331.505 74.4727,331.338 76.5,331.5 Z"/></g>
<g><path style="opacity:1" fill="#dde3da" d="M 277.5,361.5 C 279.5,361.5 281.5,361.5 283.5,361.5C 283.5,365.5 283.5,369.5 283.5,373.5C 281.5,373.5 279.5,373.5 277.5,373.5C 277.5,371.5 277.5,369.5 277.5,367.5C 274.833,367.5 272.167,367.5 269.5,367.5C 269.5,365.5 269.5,363.5 269.5,361.5C 272.167,361.5 274.833,361.5 277.5,361.5 Z"/></g>
<g><path style="opacity:1" fill="#9092a0" d="M 277.5,354.5 C 282.167,354.5 286.833,354.5 291.5,354.5C 291.5,356.833 291.5,359.167 291.5,361.5C 289.167,361.5 286.833,361.5 284.5,361.5C 284.5,365.5 284.5,369.5 284.5,373.5C 286.833,373.5 289.167,373.5 291.5,373.5C 289.393,374.468 287.059,374.802 284.5,374.5C 284.795,376.735 284.461,378.735 283.5,380.5C 283.5,378.5 283.5,376.5 283.5,374.5C 278.833,374.5 274.167,374.5 269.5,374.5C 269.5,372.167 269.5,369.833 269.5,367.5C 272.167,367.5 274.833,367.5 277.5,367.5C 277.5,369.5 277.5,371.5 277.5,373.5C 279.5,373.5 281.5,373.5 283.5,373.5C 283.5,369.5 283.5,365.5 283.5,361.5C 281.5,361.5 279.5,361.5 277.5,361.5C 277.5,359.167 277.5,356.833 277.5,354.5 Z"/></g>
<g><path style="opacity:1" fill="#9b9da8" d="M 313.5,360.5 C 313.5,362.5 313.5,364.5 313.5,366.5C 311.167,366.5 308.833,366.5 306.5,366.5C 306.5,368.833 306.5,371.167 306.5,373.5C 304.167,373.5 301.833,373.5 299.5,373.5C 299.802,376.059 299.468,378.393 298.5,380.5C 298.5,375.833 298.5,371.167 298.5,366.5C 300.833,366.5 303.167,366.5 305.5,366.5C 305.5,364.5 305.5,362.5 305.5,360.5C 308.167,360.5 310.833,360.5 313.5,360.5 Z"/></g>
<g><path style="opacity:1" fill="#463b58" d="M 291.5,361.5 C 291.5,365.5 291.5,369.5 291.5,373.5C 289.167,373.5 286.833,373.5 284.5,373.5C 284.5,369.5 284.5,365.5 284.5,361.5C 286.833,361.5 289.167,361.5 291.5,361.5 Z"/></g>
<g><path style="opacity:1" fill="#97a2ae" d="M 85.5,368.5 C 85.5,370.167 85.5,371.833 85.5,373.5C 75.5,373.5 65.5,373.5 55.5,373.5C 55.3379,371.473 55.5045,369.473 56,367.5C 65.7504,368.486 75.5837,368.819 85.5,368.5 Z"/></g>
<g><path style="opacity:1" fill="#d2dacb" d="M 412.5,373.5 C 410.167,373.5 407.833,373.5 405.5,373.5C 403.744,374.552 403.077,376.219 403.5,378.5C 399.149,379.467 396.815,377.8 396.5,373.5C 398.344,371.721 399.01,369.388 398.5,366.5C 398.5,364.5 398.5,362.5 398.5,360.5C 403.511,360.666 408.511,360.499 413.5,360C 414.618,358.926 415.618,357.76 416.5,356.5C 417.409,358.404 418.409,360.238 419.5,362C 418.293,363.3 417.626,364.8 417.5,366.5C 415.833,366.5 414.167,366.5 412.5,366.5C 412.5,368.833 412.5,371.167 412.5,373.5 Z"/></g>
<g><path style="opacity:1" fill="#4d4260" d="M 269.5,347.5 C 272.167,347.5 274.833,347.5 277.5,347.5C 277.5,349.833 277.5,352.167 277.5,354.5C 277.5,356.833 277.5,359.167 277.5,361.5C 274.833,361.5 272.167,361.5 269.5,361.5C 269.5,363.5 269.5,365.5 269.5,367.5C 269.5,369.833 269.5,372.167 269.5,374.5C 274.167,374.5 278.833,374.5 283.5,374.5C 283.5,376.5 283.5,378.5 283.5,380.5C 207.5,380.5 131.5,380.5 55.5,380.5C 55.5,378.5 55.5,376.5 55.5,374.5C 65.8333,374.5 76.1667,374.5 86.5,374.5C 86.5,370.167 86.5,365.833 86.5,361.5C 89.1437,361.285 91.477,361.285 93.5,361.5C 93.5,363.833 93.5,366.167 93.5,368.5C 93.5,370.5 93.5,372.5 93.5,374.5C 100.5,374.5 107.5,374.5 114.5,374.5C 114.5,372.167 114.5,369.833 114.5,367.5C 114.5,365.5 114.5,363.5 114.5,361.5C 116.833,361.5 119.167,361.5 121.5,361.5C 121.5,363.833 121.5,366.167 121.5,368.5C 121.5,370.5 121.5,372.5 121.5,374.5C 129.5,374.5 137.5,374.5 145.5,374.5C 145.5,372.5 145.5,370.5 145.5,368.5C 145.5,368.167 145.5,367.833 145.5,367.5C 146.461,365.735 146.795,363.735 146.5,361.5C 148.833,361.5 151.167,361.5 153.5,361.5C 153.5,363.833 153.5,366.167 153.5,368.5C 153.5,370.5 153.5,372.5 153.5,374.5C 160.833,374.5 168.167,374.5 175.5,374.5C 175.5,372.5 175.5,370.5 175.5,368.5C 175.5,366.167 175.5,363.833 175.5,361.5C 177.833,361.5 180.167,361.5 182.5,361.5C 182.5,365.833 182.5,370.167 182.5,374.5C 192.167,374.5 201.833,374.5 211.5,374.5C 211.5,370.167 211.5,365.833 211.5,361.5C 213.95,361.298 216.283,361.631 218.5,362.5C 218.5,364.5 218.5,366.5 218.5,368.5C 218.5,370.5 218.5,372.5 218.5,374.5C 223.363,374.819 228.03,374.486 232.5,373.5C 232.5,369.5 232.5,365.5 232.5,361.5C 234.833,361.5 237.167,361.5 239.5,361.5C 239.5,363.833 239.5,366.167 239.5,368.5C 239.5,370.5 239.5,372.5 239.5,374.5C 246.833,374.5 254.167,374.5 261.5,374.5C 261.5,372.5 261.5,370.5 261.5,368.5C 261.5,366.167 261.5,363.833 261.5,361.5C 267.927,363.238 270.594,360.905 269.5,354.5C 269.5,352.167 269.5,349.833 269.5,347.5 Z"/></g>
<g><path style="opacity:1" fill="#969dab" d="M 183.5,368.5 C 192.5,368.5 201.5,368.5 210.5,368.5C 210.5,370.167 210.5,371.833 210.5,373.5C 201.5,373.5 192.5,373.5 183.5,373.5C 183.5,371.833 183.5,370.167 183.5,368.5 Z"/></g>
<g><path style="opacity:1" fill="#9198a8" d="M 121.5,368.5 C 129.5,368.5 137.5,368.5 145.5,368.5C 145.5,370.5 145.5,372.5 145.5,374.5C 137.5,374.5 129.5,374.5 121.5,374.5C 121.5,372.5 121.5,370.5 121.5,368.5 Z"/></g>
<g><path style="opacity:1" fill="#9298a8" d="M 239.5,368.5 C 246.833,368.5 254.167,368.5 261.5,368.5C 261.5,370.5 261.5,372.5 261.5,374.5C 254.167,374.5 246.833,374.5 239.5,374.5C 239.5,372.5 239.5,370.5 239.5,368.5 Z"/></g>
<g><path style="opacity:1" fill="#969ba7" d="M 218.5,368.5 C 220.833,368.5 223.167,368.5 225.5,368.5C 225.5,370.167 225.5,371.833 225.5,373.5C 227.833,373.5 230.167,373.5 232.5,373.5C 228.03,374.486 223.363,374.819 218.5,374.5C 218.5,372.5 218.5,370.5 218.5,368.5 Z"/></g>
<g><path style="opacity:1" fill="#959ba9" d="M 153.5,368.5 C 160.833,368.5 168.167,368.5 175.5,368.5C 175.5,370.5 175.5,372.5 175.5,374.5C 168.167,374.5 160.833,374.5 153.5,374.5C 153.5,372.5 153.5,370.5 153.5,368.5 Z"/></g>
<g><path style="opacity:1" fill="#929aa7" d="M 114.5,367.5 C 114.5,369.833 114.5,372.167 114.5,374.5C 107.5,374.5 100.5,374.5 93.5,374.5C 93.5,372.5 93.5,370.5 93.5,368.5C 100.588,368.795 107.588,368.462 114.5,367.5 Z"/></g>
<g><path style="opacity:1" fill="#d8dfda" d="M 232.5,361.5 C 232.5,365.5 232.5,369.5 232.5,373.5C 230.167,373.5 227.833,373.5 225.5,373.5C 225.5,371.833 225.5,370.167 225.5,368.5C 223.167,368.5 220.833,368.5 218.5,368.5C 218.5,366.5 218.5,364.5 218.5,362.5C 222.97,361.514 227.637,361.181 232.5,361.5 Z"/></g>
<g><path style="opacity:1" fill="#f0f2f5" d="M 153.5,361.5 C 160.833,361.5 168.167,361.5 175.5,361.5C 175.5,363.833 175.5,366.167 175.5,368.5C 168.167,368.5 160.833,368.5 153.5,368.5C 153.5,366.167 153.5,363.833 153.5,361.5 Z"/></g>
<g><path style="opacity:1" fill="#f0f3f4" d="M 239.5,361.5 C 246.833,361.5 254.167,361.5 261.5,361.5C 261.5,363.833 261.5,366.167 261.5,368.5C 254.167,368.5 246.833,368.5 239.5,368.5C 239.5,366.167 239.5,363.833 239.5,361.5 Z"/></g>
<g><path style="opacity:1" fill="#f6f8f8" d="M 210.5,368.5 C 201.5,368.5 192.5,368.5 183.5,368.5C 183.5,366.167 183.5,363.833 183.5,361.5C 192.5,361.5 201.5,361.5 210.5,361.5C 210.5,363.833 210.5,366.167 210.5,368.5 Z"/></g>
<g><path style="opacity:1" fill="#eef3f4" d="M 121.5,361.5 C 129.5,361.5 137.5,361.5 145.5,361.5C 145.5,363.5 145.5,365.5 145.5,367.5C 145.5,367.833 145.5,368.167 145.5,368.5C 137.5,368.5 129.5,368.5 121.5,368.5C 121.5,366.167 121.5,363.833 121.5,361.5 Z"/></g>
<g><path style="opacity:1" fill="#f5f7f9" d="M 93.5,361.5 C 100.5,361.5 107.5,361.5 114.5,361.5C 114.5,363.5 114.5,365.5 114.5,367.5C 107.588,368.462 100.588,368.795 93.5,368.5C 93.5,366.167 93.5,363.833 93.5,361.5 Z"/></g>
<g><path style="opacity:1" fill="#433056" d="M 426.5,366.5 C 426.5,373.167 426.5,379.833 426.5,386.5C 424.167,386.5 421.833,386.5 419.5,386.5C 419.5,388.833 419.5,391.167 419.5,393.5C 417.167,393.5 414.833,393.5 412.5,393.5C 412.663,395.857 412.497,398.19 412,400.5C 411.617,401.056 411.117,401.389 410.5,401.5C 406.5,401.5 402.5,401.5 398.5,401.5C 398.5,398.833 398.5,396.167 398.5,393.5C 400.833,393.5 403.167,393.5 405.5,393.5C 405.5,391.5 405.5,389.5 405.5,387.5C 403.473,387.662 401.473,387.495 399.5,387C 400.167,386.667 400.833,386.333 401.5,386C 400.663,384.989 400.33,383.822 400.5,382.5C 402.781,382.923 404.448,382.256 405.5,380.5C 405.5,378.167 405.5,375.833 405.5,373.5C 407.833,373.5 410.167,373.5 412.5,373.5C 414.833,373.5 417.167,373.5 419.5,373.5C 419.5,371.167 419.5,368.833 419.5,366.5C 421.833,366.5 424.167,366.5 426.5,366.5 Z"/></g>
<g><path style="opacity:1" fill="#ccd3c9" d="M 314.5,332.5 C 318.833,332.5 323.167,332.5 327.5,332.5C 327.5,335.167 327.5,337.833 327.5,340.5C 325.5,340.5 323.5,340.5 321.5,340.5C 321.5,342.5 321.5,344.5 321.5,346.5C 321.5,348.833 321.5,351.167 321.5,353.5C 318.833,353.5 316.167,353.5 313.5,353.5C 313.5,355.833 313.5,358.167 313.5,360.5C 310.833,360.5 308.167,360.5 305.5,360.5C 305.5,362.5 305.5,364.5 305.5,366.5C 303.167,366.5 300.833,366.5 298.5,366.5C 298.5,371.167 298.5,375.833 298.5,380.5C 296.167,380.5 293.833,380.5 291.5,380.5C 291.5,382.5 291.5,384.5 291.5,386.5C 208.5,386.5 125.5,386.5 42.5,386.5C 42.5,384.5 42.5,382.5 42.5,380.5C 44.5,380.5 46.5,380.5 48.5,380.5C 48.5,378.833 48.5,377.167 48.5,375.5C 49.9778,375.238 51.3112,375.571 52.5,376.5C 51.8346,378.101 51.5012,379.601 51.5,381C 53.0657,381.765 54.3991,381.598 55.5,380.5C 131.5,380.5 207.5,380.5 283.5,380.5C 284.461,378.735 284.795,376.735 284.5,374.5C 287.059,374.802 289.393,374.468 291.5,373.5C 291.5,369.5 291.5,365.5 291.5,361.5C 293.833,361.5 296.167,361.5 298.5,361.5C 299.468,359.393 299.802,357.059 299.5,354.5C 301.833,354.5 304.167,354.5 306.5,354.5C 306.5,351.833 306.5,349.167 306.5,346.5C 308.833,346.5 311.167,346.5 313.5,346.5C 313.5,344.5 313.5,342.5 313.5,340.5C 314.473,338.052 314.806,335.385 314.5,332.5 Z"/></g>
<g><path style="opacity:1" fill="#b0aeba" d="M 48.5,373.5 C 46.7354,374.461 44.7354,374.795 42.5,374.5C 42.5,376.5 42.5,378.5 42.5,380.5C 42.5,382.5 42.5,384.5 42.5,386.5C 125.5,386.5 208.5,386.5 291.5,386.5C 208.335,387.499 125.002,387.833 41.5,387.5C 41.5,383.167 41.5,378.833 41.5,374.5C 43.6074,373.532 45.9407,373.198 48.5,373.5 Z"/></g>
<g><path style="opacity:1" fill="#443459" d="M 328.5,339.5 C 330.833,339.5 333.167,339.5 335.5,339.5C 335.5,346.167 335.5,352.833 335.5,359.5C 333.167,359.5 330.833,359.5 328.5,359.5C 329.594,365.905 326.927,368.238 320.5,366.5C 320.5,370.833 320.5,375.167 320.5,379.5C 318.167,379.5 315.833,379.5 313.5,379.5C 313.5,381.833 313.5,384.167 313.5,386.5C 311.167,386.5 308.833,386.5 306.5,386.5C 306.5,388.833 306.5,391.167 306.5,393.5C 303.833,393.5 301.167,393.5 298.5,393.5C 298.5,396.167 298.5,398.833 298.5,401.5C 296.167,401.5 293.833,401.5 291.5,401.5C 291.5,398.833 291.5,396.167 291.5,393.5C 208.5,393.5 125.5,393.5 42.5,393.5C 42.5,396.167 42.5,398.833 42.5,401.5C 41.5139,397.03 41.1805,392.363 41.5,387.5C 125.002,387.833 208.335,387.499 291.5,386.5C 291.5,384.5 291.5,382.5 291.5,380.5C 293.833,380.5 296.167,380.5 298.5,380.5C 299.468,378.393 299.802,376.059 299.5,373.5C 301.833,373.5 304.167,373.5 306.5,373.5C 306.5,371.167 306.5,368.833 306.5,366.5C 308.833,366.5 311.167,366.5 313.5,366.5C 313.5,364.5 313.5,362.5 313.5,360.5C 313.5,358.167 313.5,355.833 313.5,353.5C 316.167,353.5 318.833,353.5 321.5,353.5C 321.5,351.167 321.5,348.833 321.5,346.5C 323.833,346.5 326.167,346.5 328.5,346.5C 328.5,344.167 328.5,341.833 328.5,339.5 Z"/></g>
<g><path style="opacity:1" fill="#615372" d="M 291.5,401.5 C 290.833,401.5 290.167,401.5 289.5,401.5C 207.167,401.5 124.833,401.5 42.5,401.5C 42.5,398.833 42.5,396.167 42.5,393.5C 125.5,393.5 208.5,393.5 291.5,393.5C 291.5,396.167 291.5,398.833 291.5,401.5 Z"/></g>
<g><path style="opacity:1" fill="#524465" d="M 342.5,366.5 C 342.833,366.5 343.167,366.5 343.5,366.5C 343.5,375.5 343.5,384.5 343.5,393.5C 343.5,393.833 343.5,394.167 343.5,394.5C 343.5,396.833 343.5,399.167 343.5,401.5C 345.5,401.5 347.5,401.5 349.5,401.5C 361.167,401.5 372.833,401.5 384.5,401.5C 384.5,398.833 384.5,396.167 384.5,393.5C 386.833,393.5 389.167,393.5 391.5,393.5C 391.5,391.167 391.5,388.833 391.5,386.5C 393.833,386.5 396.167,386.5 398.5,386.5C 398.5,384.5 398.5,382.5 398.5,380.5C 400.833,380.5 403.167,380.5 405.5,380.5C 404.448,382.256 402.781,382.923 400.5,382.5C 400.33,383.822 400.663,384.989 401.5,386C 400.833,386.333 400.167,386.667 399.5,387C 401.473,387.495 403.473,387.662 405.5,387.5C 405.5,389.5 405.5,391.5 405.5,393.5C 403.167,393.5 400.833,393.5 398.5,393.5C 398.5,396.167 398.5,398.833 398.5,401.5C 396.167,401.5 393.833,401.5 391.5,401.5C 391.5,403.833 391.5,406.167 391.5,408.5C 375.833,408.5 360.167,408.5 344.5,408.5C 343.883,408.389 343.383,408.056 343,407.5C 342.505,405.527 342.338,403.527 342.5,401.5C 340.167,401.5 337.833,401.5 335.5,401.5C 335.5,394.5 335.5,387.5 335.5,380.5C 337.833,380.5 340.167,380.5 342.5,380.5C 342.5,375.833 342.5,371.167 342.5,366.5 Z"/></g>
<g><path style="opacity:1" fill="#bfc8c3" d="M 396.5,373.5 C 396.815,377.8 399.149,379.467 403.5,378.5C 403.077,376.219 403.744,374.552 405.5,373.5C 405.5,375.833 405.5,378.167 405.5,380.5C 403.167,380.5 400.833,380.5 398.5,380.5C 398.5,382.5 398.5,384.5 398.5,386.5C 396.167,386.5 393.833,386.5 391.5,386.5C 391.5,388.833 391.5,391.167 391.5,393.5C 389.167,393.5 386.833,393.5 384.5,393.5C 384.5,396.167 384.5,398.833 384.5,401.5C 372.833,401.5 361.167,401.5 349.5,401.5C 349.5,399.167 349.5,396.833 349.5,394.5C 347.5,394.5 345.5,394.5 343.5,394.5C 343.5,394.167 343.5,393.833 343.5,393.5C 354.833,393.5 366.167,393.5 377.5,393.5C 377.5,391.167 377.5,388.833 377.5,386.5C 379.833,386.5 382.167,386.5 384.5,386.5C 384.5,384.5 384.5,382.5 384.5,380.5C 386.833,380.5 389.167,380.5 391.5,380.5C 391.5,378.167 391.5,375.833 391.5,373.5C 393.167,373.5 394.833,373.5 396.5,373.5 Z"/></g>
<g><path style="opacity:1" fill="#83809a" d="M 343.5,394.5 C 345.5,394.5 347.5,394.5 349.5,394.5C 349.5,396.833 349.5,399.167 349.5,401.5C 347.5,401.5 345.5,401.5 343.5,401.5C 343.5,399.167 343.5,396.833 343.5,394.5 Z"/></g>
<g><path style="opacity:1" fill="#1f0b27" d="M 41.5,374.5 C 41.5,378.833 41.5,383.167 41.5,387.5C 41.1805,392.363 41.5139,397.03 42.5,401.5C 124.833,401.5 207.167,401.5 289.5,401.5C 289.082,402.222 288.416,402.722 287.5,403C 212.305,403.829 137.139,403.662 62,402.5C 57.2054,403.254 52.372,403.754 47.5,404C 46.1667,404.667 46.1667,405.333 47.5,406C 43.7973,406.579 40.1306,406.412 36.5,405.5C 36.771,397.464 36.4377,389.464 35.5,381.5C 35.8599,379.392 36.5266,377.392 37.5,375.5C 38.9847,376.433 40.3181,376.1 41.5,374.5 Z"/></g>
<g><path style="opacity:1" fill="#1c092d" d="M 47.5,366.5 C 47.8333,366.5 48.1667,366.5 48.5,366.5C 48.5,368.833 48.5,371.167 48.5,373.5C 45.9407,373.198 43.6074,373.532 41.5,374.5C 40.3181,376.1 38.9847,376.433 37.5,375.5C 36.5266,377.392 35.8599,379.392 35.5,381.5C 36.4377,389.464 36.771,397.464 36.5,405.5C 40.1306,406.412 43.7973,406.579 47.5,406C 46.1667,405.333 46.1667,404.667 47.5,404C 52.372,403.754 57.2054,403.254 62,402.5C 137.139,403.662 212.305,403.829 287.5,403C 288.416,402.722 289.082,402.222 289.5,401.5C 290.167,401.5 290.833,401.5 291.5,401.5C 293.833,401.5 296.167,401.5 298.5,401.5C 298.822,403.722 298.155,405.556 296.5,407C 209.501,407.5 122.501,407.667 35.5,407.5C 34.357,403.043 33.6903,398.376 33.5,393.5C 34.2131,386.851 34.5464,380.184 34.5,373.5C 40.1675,374.498 42.5008,372.164 41.5,366.5C 43.5,366.5 45.5,366.5 47.5,366.5 Z"/></g>
<g><path style="opacity:0.347" fill="#06163e" d="M 298.5,401.5 C 298.833,401.5 299.167,401.5 299.5,401.5C 299.756,403.792 299.423,405.959 298.5,408C 210.666,408.832 122.999,408.666 35.5,407.5C 122.501,407.667 209.501,407.5 296.5,407C 298.155,405.556 298.822,403.722 298.5,401.5 Z"/></g>
<g><path style="opacity:1" fill="#1d0929" d="M 398.5,401.5 C 402.5,401.5 406.5,401.5 410.5,401.5C 411.434,403.239 411.434,404.905 410.5,406.5C 406.18,407.112 401.847,407.778 397.5,408.5C 396.652,410.409 396.318,412.409 396.5,414.5C 379.167,414.5 361.833,414.5 344.5,414.5C 344.5,412.5 344.5,410.5 344.5,408.5C 360.167,408.5 375.833,408.5 391.5,408.5C 391.5,406.167 391.5,403.833 391.5,401.5C 393.833,401.5 396.167,401.5 398.5,401.5 Z"/></g>
</svg>
